<?xml version="1.0" standalone="no"?>
<!DOCTYPE svg PUBLIC "-//W3C//DTD SVG 20010904//EN"
 "http://www.w3.org/TR/2001/REC-SVG-20010904/DTD/svg10.dtd">
<svg version="1.0" xmlns="http://www.w3.org/2000/svg"
 width="250.000000pt" height="333.675565pt" viewBox="0 0 250.000000 333.675565"
 preserveAspectRatio="xMidYMid meet">
<metadata>
Created by potrace 1.16, written by Peter Selinger 2001-2019
</metadata>
<g transform="translate(0.000000,333.675565) scale(0.025667,-0.025667)"
fill="#000000" stroke="none">
<path d="M5010 11485 c-14 -8 -35 -19 -47 -26 -24 -13 -63 -94 -63 -131 1 -44
37 -106 79 -134 36 -23 48 -26 107 -22 62 4 69 7 100 41 l34 37 73 -11 c130
-21 342 -66 457 -97 137 -38 433 -142 488 -171 9 -6 73 -37 142 -71 69 -34
134 -66 145 -73 136 -81 216 -134 298 -197 54 -41 105 -79 114 -85 8 -5 70
-64 138 -130 107 -105 201 -212 258 -295 64 -94 129 -194 134 -208 3 -10 12
-24 18 -32 26 -32 165 -318 165 -339 0 -5 9 -26 19 -48 56 -114 141 -410 182
-634 l21 -116 -21 -34 c-54 -88 6 -186 107 -176 65 7 102 46 102 108 0 38 -5
53 -29 78 -26 27 -32 47 -46 134 -48 296 -158 648 -285 907 -71 145 -223 399
-274 457 -6 7 -20 24 -31 39 -24 32 -177 207 -187 214 -4 3 -41 39 -83 79
l-75 74 -23 -19 -22 -19 18 21 c18 22 18 22 -40 68 -32 25 -63 50 -68 54 -82
66 -281 188 -465 287 -41 21 -230 105 -300 132 -246 94 -623 193 -848 222 -41
5 -75 11 -76 13 -1 2 -7 15 -14 31 -16 37 -97 87 -141 87 -20 0 -47 -7 -61
-15z m137 -57 c29 -27 53 -70 53 -95 0 -21 -37 -95 -54 -105 -27 -19 -78 -26
-109 -16 -49 15 -97 74 -97 118 0 43 41 103 80 119 38 16 99 6 127 -21z m2858
-2723 c33 -32 33 -84 1 -121 -50 -59 -146 -19 -146 60 0 76 92 115 145 61z"/>
<path d="M4592 11375 l-20 -25 -314 0 c-212 0 -318 4 -325 11 -29 29 -89 -14
-67 -48 20 -32 41 -39 62 -20 17 15 51 17 335 17 252 0 317 -3 317 -13 0 -7
14 -21 31 -31 70 -41 141 43 93 112 -22 32 -86 31 -112 -3z"/>
<path d="M3700 11232 c6 -2 8 -8 4 -13 -3 -5 167 -9 423 -9 l429 0 69 -70 69
-70 453 0 c340 0 458 -3 473 -12 24 -15 46 2 36 28 -5 13 -14 15 -39 10 -17
-4 -230 -6 -472 -6 l-440 0 -70 70 -70 69 -438 3 c-240 2 -433 1 -427 0z"/>
<path d="M3833 11147 c-2 -4 -1 -7 4 -6 18 3 27 -2 16 -9 -6 -4 146 -6 339 -4
l349 3 75 -76 74 -75 357 0 c217 1 360 -3 366 -9 11 -11 37 -3 37 11 0 6 -6 6
-14 -1 -10 -8 -16 -9 -21 -1 -10 16 5 32 24 25 13 -5 14 -4 3 7 -10 10 -17 10
-32 0 -15 -9 -109 -12 -363 -12 l-343 0 -74 75 -74 75 -359 2 c-197 2 -361 0
-364 -5z"/>
<path d="M3400 11050 c19 -9 22 -13 10 -20 -8 -5 -19 -6 -25 -3 -5 3 -5 0 2
-7 9 -10 15 -10 26 -1 11 8 159 11 573 11 l559 1 43 -47 c23 -25 42 -52 42
-60 0 -8 4 -14 8 -14 21 0 2 45 -38 90 l-44 50 -563 0 c-310 0 -575 2 -590 5
-28 5 -28 5 -3 -5z"/>
<path d="M2586 11005 c-9 -13 -16 -33 -16 -43 0 -47 88 -73 110 -32 11 20 21
20 645 20 l635 0 0 -140 0 -140 164 0 c137 0 169 -3 194 -17 25 -14 32 -15 46
-4 9 7 16 18 16 24 0 7 -4 7 -12 -1 -28 -28 -83 3 -58 33 17 20 47 19 59 -2 5
-10 12 -15 16 -12 3 4 -1 14 -10 23 -18 18 -60 22 -70 6 -4 -6 -68 -10 -161
-10 l-154 0 0 140 0 140 -650 0 c-636 0 -650 0 -670 20 -28 28 -64 26 -84 -5z"/>
<path d="M4025 10991 c-3 -6 -1 -19 5 -30 5 -11 10 -44 10 -75 l0 -55 207 -1
208 -1 32 -31 c37 -36 39 -43 18 -64 -11 -12 -12 -20 -5 -35 13 -23 33 -25 51
-3 10 12 10 20 1 35 -7 10 -12 27 -12 37 0 10 -17 35 -38 55 l-38 37 -203 0
-203 0 5 48 c3 26 6 56 8 67 3 14 -2 21 -18 23 -11 2 -24 -2 -28 -7z"/>
<path d="M4120 10925 c-6 -8 -9 -23 -5 -35 7 -21 29 -27 40 -10 4 6 77 10 185
10 l179 0 31 -28 c27 -25 30 -34 28 -72 -2 -34 1 -45 13 -48 41 -8 28 83 -19
133 l-34 35 -183 0 c-150 0 -185 3 -195 15 -16 19 -24 19 -40 0z"/>
<path d="M4912 10888 c-16 -16 -15 -33 3 -48 12 -10 15 -39 15 -141 l0 -129
163 0 c90 0 167 -3 170 -7 4 -3 2 -12 -4 -20 -15 -17 -429 -19 -458 -1 -21 13
-51 5 -51 -14 0 -10 2 -10 9 0 12 20 46 10 46 -13 0 -15 -7 -20 -26 -20 -21 1
-26 -4 -26 -22 0 -19 2 -21 14 -12 18 16 49 -12 40 -35 -8 -21 -36 -20 -54 2
-13 15 -13 15 -3 -5 11 -23 60 -33 60 -13 0 6 80 10 219 10 136 0 222 -4 226
-10 21 -33 76 13 56 47 -5 11 -5 25 2 40 7 16 7 26 -2 37 -9 11 -10 20 -1 35
16 31 -4 66 -33 55 -12 -4 -88 -9 -169 -11 l-148 -4 0 108 c0 65 4 113 11 120
6 6 9 21 7 34 -3 27 -45 38 -66 17z m351 -405 c4 -3 2 -12 -4 -20 -9 -10 -58
-13 -224 -13 -166 0 -215 3 -224 13 -6 8 -8 17 -4 20 3 4 106 7 228 7 122 0
225 -3 228 -7z"/>
<path d="M6217 10893 c-4 -3 -4 -23 -1 -45 l7 -38 -149 0 -149 0 -33 -35 c-21
-21 -31 -39 -26 -47 5 -10 4 -11 -7 0 -7 6 -31 12 -54 12 -23 0 -46 5 -53 12
-15 15 -42 -7 -42 -34 0 -23 27 -35 43 -19 6 6 35 11 65 11 47 0 57 4 80 30
l26 30 163 0 c89 0 164 3 166 8 10 16 18 122 9 122 -5 0 -8 -10 -8 -22 1 -14
-5 -23 -14 -23 -9 0 -15 9 -14 23 1 24 0 25 -9 15z"/>
<path d="M3684 10858 c-5 -13 -8 -26 -9 -30 0 -4 -21 -29 -47 -57 l-46 -51
-98 0 c-87 0 -100 -2 -123 -22 l-26 -23 19 23 19 22 -224 0 c-212 0 -225 1
-242 20 -23 27 -68 26 -95 -3 -29 -30 -28 -62 3 -92 31 -32 59 -32 91 0 l25
25 419 0 c267 0 420 -4 420 -10 0 -5 11 -17 25 -26 36 -23 81 -11 94 27 25 73
-50 130 -105 78 -18 -17 -32 -20 -85 -17 l-64 3 31 33 c17 17 41 32 52 32 12
0 29 11 37 24 14 20 14 28 3 45 -18 29 -64 28 -74 -1z"/>
<path d="M4773 10858 c-25 -12 -48 -60 -40 -87 3 -14 -15 -38 -64 -87 l-69
-68 0 -59 c0 -36 -6 -67 -16 -82 -16 -25 -11 -63 10 -77 17 -12 71 -9 84 4 15
15 16 74 2 83 -5 3 -10 26 -10 49 0 40 5 49 59 104 48 48 64 59 84 55 40 -8
85 22 93 61 16 87 -55 142 -133 104z m94 -30 c31 -29 30 -71 -3 -97 -15 -12
-35 -21 -46 -21 -25 0 -68 44 -68 70 0 28 43 70 71 70 13 0 33 -10 46 -22z"/>
<path d="M4035 10809 c-2 -3 6 -5 18 -5 13 1 22 -5 22 -14 0 -9 -9 -15 -23
-14 -16 0 -20 -2 -12 -10 7 -7 16 -7 30 2 13 8 67 12 163 12 l143 0 32 -33
c30 -31 32 -38 26 -75 -6 -38 -5 -42 15 -42 26 0 38 25 21 45 -7 8 -10 22 -6
31 4 10 -9 31 -37 59 l-42 44 -173 3 c-96 2 -176 0 -177 -3z"/>
<path d="M2656 10648 c-9 -12 -16 -33 -16 -45 0 -30 34 -63 63 -63 14 0 32
-12 45 -30 l23 -30 182 0 c133 0 187 3 196 13 11 10 13 10 7 0 -6 -10 41 -13
218 -13 191 0 229 -2 254 -17 34 -20 55 -14 78 23 16 23 16 29 3 52 -19 34
-50 44 -84 26 -23 -12 -99 -14 -417 -14 -342 0 -391 2 -413 16 -17 11 -25 26
-25 44 0 56 -82 84 -114 38z"/>
<path d="M5360 10641 c-5 -11 -10 -71 -10 -135 0 -149 -3 -146 172 -146 168 0
168 0 168 144 0 58 -4 116 -10 130 l-10 26 -149 0 c-138 0 -151 -2 -161 -19z"/>
<path d="M5752 10638 c-22 -22 -13 -43 41 -96 l53 -52 180 0 c151 1 187 -2
217 -16 34 -16 37 -16 61 0 28 18 34 53 16 87 -12 21 -68 27 -86 9 -6 -6 -79
-10 -183 -11 l-173 0 -49 46 c-52 48 -59 51 -77 33z"/>
<path d="M4294 10595 c-24 -25 -28 -25 -182 -25 l-157 0 -48 -43 c-26 -23 -70
-62 -97 -86 l-50 -43 0 -314 c0 -219 -3 -320 -11 -333 -16 -24 -4 -67 20 -74
25 -6 61 19 61 43 0 10 -7 25 -15 34 -13 12 -15 62 -15 322 l0 307 23 21 c13
11 50 45 84 74 l61 52 156 0 c145 0 156 -1 166 -20 24 -44 100 -13 100 41 0
30 -9 43 -37 58 -29 15 -30 15 -59 -14z"/>
<path d="M6530 10565 c-19 -23 -15 -66 8 -84 12 -10 20 -28 20 -48 1 -27 -9
-41 -50 -78 -47 -42 -52 -44 -63 -28 -7 10 -14 27 -16 37 -9 45 -89 48 -89 2
0 -25 28 -56 52 -56 9 0 21 -6 27 -13 8 -11 -10 -34 -86 -106 l-96 -91 -2
-208 c-1 -153 -4 -214 -15 -234 -12 -25 -11 -30 5 -48 24 -26 50 -25 69 2 14
20 14 24 0 46 -13 20 -16 58 -15 230 1 113 2 206 4 207 1 1 73 68 160 149 148
139 157 150 157 185 0 25 7 42 21 55 16 14 20 25 15 49 -3 17 -12 35 -19 39
-20 13 -74 9 -87 -7z"/>
<path d="M6742 10528 c-7 -7 -12 -21 -12 -31 0 -17 -113 -132 -302 -307 l-47
-44 -1 -300 c0 -164 -2 -301 -4 -303 -2 -2 -61 -12 -132 -23 -71 -11 -147 -26
-169 -34 -22 -8 -46 -15 -53 -16 -11 0 -37 -11 -152 -63 -25 -11 -74 -37 -110
-56 -37 -20 -75 -34 -90 -33 -16 2 -33 -5 -45 -17 -17 -20 -29 -21 -262 -21
-230 0 -246 1 -270 20 -14 11 -33 20 -43 20 -30 0 -70 -39 -70 -68 0 -35 10
-49 43 -61 28 -11 52 -6 77 15 11 9 75 14 243 16 125 2 227 2 227 2 0 -1 -42
-44 -93 -95 -52 -52 -102 -107 -113 -122 l-19 -28 -52 38 c-28 21 -54 48 -58
61 -4 17 -13 22 -36 22 -33 0 -44 -17 -35 -55 5 -21 12 -25 41 -25 23 0 43 -8
62 -26 15 -14 34 -29 42 -34 15 -8 13 -11 -57 -125 -56 -93 -109 -230 -148
-390 -25 -100 -28 -126 -27 -295 0 -167 3 -196 27 -295 81 -326 226 -564 471
-771 64 -54 211 -154 226 -154 5 0 9 -44 9 -97 l0 -97 -142 -143 -143 -143
-102 0 c-57 0 -105 4 -108 10 -3 6 -17 10 -30 10 -28 0 -41 -30 -25 -60 13
-24 33 -26 50 -5 10 12 37 15 125 15 l112 0 147 147 146 146 0 94 c0 103 2
106 61 74 48 -26 210 -79 262 -87 23 -3 53 -8 67 -10 14 -3 50 -9 80 -14 30
-6 74 -10 98 -10 l42 0 0 -92 c0 -491 5 -664 21 -693 9 -16 23 -42 30 -56 43
-78 123 -110 269 -108 60 1 96 -3 98 -9 2 -6 19 -21 37 -32 40 -25 76 -19 105
17 26 33 25 67 -1 104 -29 41 -84 41 -124 -1 -27 -29 -31 -29 -119 -29 -118 2
-155 11 -193 51 -71 75 -67 45 -73 638 l-5 535 -65 3 c-176 8 -417 83 -516
161 -15 12 -31 21 -35 21 -5 0 -18 9 -29 20 -29 29 -47 25 -92 -20 l-40 -40
-27 19 c-35 26 -148 147 -191 206 -146 200 -222 439 -223 695 0 355 150 683
413 902 58 49 131 103 150 111 8 4 44 23 78 42 35 19 68 35 73 35 9 0 49 -81
49 -101 0 -7 7 -8 18 -4 21 9 98 32 172 51 80 21 299 29 401 15 160 -23 296
-76 434 -169 54 -37 71 -54 75 -77 6 -32 47 -62 73 -52 9 3 23 17 32 31 25 37
3 79 -45 86 -19 3 -73 30 -120 62 -96 63 -156 92 -280 133 -47 15 -91 32 -97
38 -8 6 -13 6 -13 0 0 -6 -19 -7 -52 -1 -130 22 -366 6 -480 -33 -87 -29 -83
-31 -117 63 l-10 26 -48 -18 c-45 -17 -66 -28 -173 -86 -19 -10 -39 -24 -45
-30 -5 -5 -28 -22 -50 -37 -80 -54 -209 -188 -283 -294 -30 -44 -112 -207
-134 -268 -10 -27 -30 -102 -44 -165 -73 -316 -5 -672 184 -956 46 -70 149
-182 228 -249 l55 -47 46 46 45 46 37 -22 c20 -11 43 -27 51 -34 77 -62 374
-154 501 -154 l49 0 0 -106 0 -107 -87 8 c-49 4 -112 9 -141 10 -29 2 -58 8
-65 13 -7 5 -39 17 -72 26 -79 22 -161 55 -205 82 l-36 21 1 -26 c0 -19 -5
-26 -20 -26 -25 0 -34 42 -11 51 11 4 2 13 -30 30 -177 94 -405 338 -499 534
-14 30 -32 66 -39 80 -29 56 -76 221 -91 319 -56 382 50 764 290 1046 23 28
75 82 115 122 61 61 77 72 105 71 41 -1 52 6 73 49 39 81 370 213 580 230 66
6 76 -1 42 -32 -37 -34 -13 -105 36 -105 55 0 85 74 42 104 -21 15 -22 17 -20
353 1 270 4 340 15 352 7 9 83 82 168 163 96 92 162 148 175 148 26 0 44 18
44 47 0 35 -53 56 -78 31z"/>
<path d="M2639 10451 c-37 -38 -39 -85 -4 -123 23 -25 24 -31 25 -175 2 -325
6 -295 -44 -347 l-43 -46 -122 -1 -121 0 0 -464 c0 -298 -4 -466 -10 -470 -14
-9 -13 -68 2 -83 16 -16 70 -16 86 0 15 15 16 70 2 84 -7 7 -9 158 -8 435 l3
424 99 3 98 3 69 68 69 68 -1 239 c0 166 3 240 10 242 6 2 18 17 27 34 49 94
-63 183 -137 109z"/>
<path d="M4380 10461 c-42 -22 -58 -68 -39 -115 7 -17 19 -35 26 -39 9 -6 13
-37 13 -109 l0 -101 -75 -72 -75 -71 0 -522 0 -522 38 -39 c34 -35 37 -44 34
-80 -5 -54 11 -91 51 -118 97 -66 212 23 178 137 -17 56 -60 83 -123 77 -40
-3 -50 0 -67 20 -12 12 -25 23 -31 23 -7 0 -10 169 -10 494 l0 495 69 68 c38
37 74 78 80 90 6 12 11 65 11 118 0 89 2 100 25 127 24 29 33 81 17 103 -34
46 -79 60 -122 36z m77 -19 c6 -4 17 -20 22 -36 15 -37 -4 -77 -42 -90 -61
-22 -112 63 -67 112 21 22 64 29 87 14z m26 -1610 c38 -36 37 -84 -2 -123 -20
-20 -39 -29 -61 -29 -36 0 -90 46 -90 78 0 62 52 117 100 106 14 -3 37 -17 53
-32z"/>
<path d="M5726 10464 c-18 -17 -19 -24 -10 -48 7 -18 49 -22 59 -6 4 6 77 10
187 10 l181 0 58 -60 c32 -33 59 -68 61 -77 2 -9 10 -18 18 -21 12 -4 13 -2 3
9 -22 23 -16 51 9 47 26 -3 37 -36 16 -50 -10 -8 -10 -9 2 -5 21 5 24 42 5 61
-9 9 -20 14 -24 12 -4 -3 -34 22 -66 54 l-59 60 -187 0 c-154 0 -189 3 -199
15 -16 19 -35 19 -54 -1z"/>
<path d="M6909 10433 c-1 -4 -1 -44 0 -88 l2 -80 -55 -55 -56 -54 0 -186 0
-185 -90 -90 -90 -90 0 -137 c0 -85 4 -138 10 -138 6 0 10 -7 10 -15 0 -26
-27 -16 -35 12 -3 15 -6 82 -6 150 l0 124 90 90 90 90 1 297 c0 163 1 306 3
317 1 12 -4 20 -13 20 -9 0 -14 -8 -13 -20 1 -11 3 -152 3 -314 l1 -295 -90
-90 -91 -91 0 -138 c0 -115 -2 -137 -15 -137 -13 0 -15 21 -15 132 l0 131 95
95 95 94 -1 273 c0 150 3 284 6 298 7 28 -11 46 -28 28 -9 -9 -8 -11 6 -6 12
5 17 2 17 -10 0 -11 -5 -15 -16 -11 -8 3 -12 2 -9 -4 3 -5 6 -134 6 -287 l0
-277 -91 -91 -90 -90 0 -133 c0 -117 -2 -135 -19 -153 -11 -12 -21 -16 -25
-10 -4 5 -2 12 4 16 6 4 10 60 10 138 l0 132 90 90 90 89 -2 66 -2 65 -3 -60
-4 -60 -89 -90 -90 -90 0 -137 c0 -76 -4 -139 -10 -143 -5 -3 -7 -12 -4 -19 4
-10 30 -13 102 -13 53 1 89 3 80 5 -22 4 -24 32 -3 32 13 0 15 22 15 135 l0
135 77 75 c42 41 74 78 70 82 -4 4 -43 -29 -87 -73 l-79 -79 -3 -133 c-4 -174
-22 -181 -26 -9 l-3 127 96 95 95 96 0 183 0 183 55 56 55 55 2 71 c1 39 2 79
2 88 1 16 -23 32 -25 16z"/>
<path d="M2348 10349 c-22 -13 -24 -72 -3 -89 22 -18 22 -268 0 -276 -18 -7
-45 -60 -45 -90 0 -12 12 -36 26 -53 20 -25 34 -31 64 -31 30 0 44 6 64 31 14
17 26 42 26 55 0 26 -26 74 -47 87 -20 12 -17 255 2 281 44 58 -23 123 -87 85z"/>
<path d="M5500 10325 c-9 -11 -16 -13 -24 -5 -15 15 -52 12 -67 -6 -11 -13
-10 -21 5 -48 11 -21 16 -48 14 -77 l-3 -44 -293 -3 c-168 -1 -300 2 -310 7
-15 8 -18 5 -17 -17 0 -20 -5 -27 -20 -27 -26 0 -32 33 -8 51 17 14 16 14 -4
4 -27 -13 -30 -42 -7 -65 15 -14 18 -14 40 0 20 13 71 15 339 15 l315 0 0 74
c0 50 4 77 14 85 11 9 15 8 20 -5 11 -30 7 -869 -5 -881 -18 -18 -1 -53 26
-53 29 0 52 35 36 54 -12 14 -17 869 -6 887 5 7 12 6 21 -2 11 -9 14 -47 14
-180 l0 -169 164 -164 c91 -90 173 -179 184 -197 19 -35 62 -48 68 -21 1 7 0
8 -3 2 -7 -15 -43 -12 -49 5 -9 22 15 47 39 39 13 -4 17 -2 13 5 -4 6 -15 11
-24 11 -10 0 -95 78 -191 174 l-173 173 5 154 c3 85 9 168 12 186 9 39 -20 61
-51 39 -15 -12 -22 -12 -40 0 -18 13 -23 12 -34 -1z"/>
<path d="M5862 10318 c-15 -15 -16 -45 -2 -53 6 -3 10 -43 10 -89 0 -98 -10
-113 -80 -118 l-45 -3 -5 -90 c-6 -87 1 -120 24 -112 7 2 10 33 7 90 l-3 87
41 0 c30 0 47 7 66 25 23 24 25 33 25 110 0 46 5 95 11 109 19 41 -19 74 -49
44z"/>
<path d="M2858 10272 c-32 -19 -38 -63 -13 -88 12 -13 15 -47 15 -182 0 -92 4
-173 9 -180 5 -8 17 -12 27 -10 18 3 19 16 22 177 2 133 6 178 17 194 22 32
18 59 -12 84 -31 27 -30 27 -65 5z"/>
<path d="M7005 10270 c-4 -6 -3 -9 2 -8 4 2 8 -1 8 -7 0 -5 -4 -9 -9 -7 -5 2
-36 -23 -68 -55 l-58 -57 0 -171 c0 -133 -3 -175 -15 -191 -7 -12 -48 -54 -89
-94 l-75 -72 -3 -164 c-2 -126 0 -164 10 -164 6 0 12 -7 12 -15 0 -8 4 -15 10
-15 5 0 9 6 7 13 -1 6 5 12 13 11 13 -1 15 22 12 161 l-3 163 91 90 90 91 0
164 c0 159 1 164 24 186 22 21 32 22 119 19 72 -2 93 0 90 10 -4 8 -34 12
-102 12 l-96 0 -27 -34 c-28 -35 -28 -36 -28 -194 l0 -159 -90 -89 -90 -89 0
-162 c0 -102 -4 -163 -10 -163 -6 0 -10 59 -10 158 l0 157 90 93 90 92 0 174
0 173 51 51 c28 28 60 54 70 57 23 7 24 18 5 34 -10 8 -16 9 -21 1z"/>
<path d="M2991 10226 c-25 -45 30 -91 66 -55 8 8 76 11 220 10 l208 -2 28 -26
27 -27 0 -393 c0 -221 -4 -393 -9 -393 -16 0 -19 -40 -4 -55 17 -18 28 -19 54
-5 23 13 25 48 4 56 -13 5 -15 60 -15 410 l0 405 -35 34 -34 35 -214 0 c-179
0 -217 3 -227 15 -19 23 -55 18 -69 -9z"/>
<path d="M4237 10182 c-10 -10 -17 -26 -17 -34 0 -18 -144 -161 -167 -166 -20
-5 -113 92 -113 118 0 31 -36 45 -66 25 -13 -8 -24 -22 -24 -30 0 -19 41 -57
56 -51 6 2 35 -19 63 -48 l52 -53 -70 -68 -71 -68 0 -306 c0 -295 -1 -307 -20
-319 -25 -16 -26 -63 -2 -85 38 -35 102 -9 102 40 0 11 -9 32 -20 46 -19 24
-20 40 -20 320 l0 294 53 49 c28 26 101 94 160 151 59 57 116 103 127 103 22
0 50 25 50 46 0 15 -35 54 -48 54 -5 0 -16 -8 -25 -18z"/>
<path d="M7095 10130 c-3 -5 -26 -10 -51 -10 -31 0 -50 -6 -64 -20 -18 -18
-20 -33 -20 -169 l0 -149 -90 -88 -90 -88 0 -163 c0 -93 4 -163 9 -163 5 0 11
-8 13 -17 2 -9 2 61 0 157 l-3 175 90 93 91 92 0 149 c0 131 2 150 18 164 22
20 98 23 106 5 3 -7 3 -2 0 11 -4 17 -2 22 7 18 8 -2 13 -11 11 -18 -3 -11 -1
-12 10 -1 11 11 10 14 -2 22 -19 12 -27 12 -35 0z"/>
<path d="M4602 10098 c-7 -7 -12 -20 -12 -30 0 -16 -52 -71 -171 -179 l-39
-35 0 -235 c0 -223 -1 -235 -20 -247 -28 -17 -28 -87 -1 -102 67 -35 124 47
71 100 -19 19 -20 33 -20 239 l0 219 102 96 c69 65 109 96 125 96 31 0 50 39
34 69 -13 23 -50 28 -69 9z"/>
<path d="M7257 10084 c-4 -4 -62 -7 -129 -8 l-123 -1 -5 -148 -5 -147 -87 -88
-87 -87 -2 -155 c-2 -127 0 -155 11 -155 11 0 13 28 11 152 l-3 152 91 90 91
89 0 141 0 141 113 0 c70 0 117 -4 124 -11 13 -13 33 -4 33 14 0 8 -3 7 -9 -2
-5 -8 -14 -10 -21 -6 -10 6 -9 11 5 22 11 7 14 13 9 13 -6 0 -14 -3 -17 -6z"/>
<path d="M3048 10073 c-25 -6 -33 -41 -14 -62 12 -13 16 -38 16 -90 l0 -73
-142 -144 -143 -144 -103 0 c-60 0 -110 5 -121 12 -28 17 -53 3 -49 -29 2 -14
10 -28 18 -30 12 -4 12 -3 2 5 -20 14 -10 47 13 47 21 0 34 -33 17 -44 -6 -3
45 -5 111 -3 l122 3 153 152 152 152 0 87 c0 48 5 90 10 93 6 3 10 17 10 30 0
26 -25 44 -52 38z"/>
<path d="M7098 10018 c9 -11 10 -18 2 -23 -5 -3 -13 1 -16 9 -3 9 -10 16 -16
16 -5 0 -7 -4 -3 -9 3 -5 1 -12 -4 -16 -5 -3 -14 3 -20 12 -6 10 -11 13 -11 6
0 -6 5 -15 10 -18 6 -3 10 -49 10 -103 l0 -97 -94 -95 -95 -95 -2 -188 -1
-188 47 -25 c27 -13 51 -22 53 -19 3 3 11 -3 18 -13 10 -14 15 -15 26 -4 11
11 10 12 -4 7 -19 -8 -25 9 -8 20 6 4 10 83 10 203 l0 197 95 95 95 95 0 78 0
79 60 -5 c33 -2 57 -1 55 4 -3 4 3 13 12 19 16 10 16 11 -2 4 -11 -4 -48 -10
-82 -12 l-63 -4 0 -78 0 -78 -95 -97 -95 -98 0 -197 c0 -174 -2 -199 -16 -204
-9 -4 -19 -4 -21 -2 -7 7 7 27 15 22 4 -2 7 87 7 199 0 158 -3 201 -12 198
-10 -4 -13 -54 -13 -202 0 -130 -4 -191 -10 -181 -5 8 -10 94 -10 191 l0 177
90 88 90 88 0 106 c0 60 5 111 10 116 8 8 5 15 -7 25 -16 13 -17 12 -5 -3z
m-8 -126 l0 -98 -91 -92 -90 -92 -4 -185 c-2 -107 1 -185 6 -185 5 0 9 -7 9
-15 0 -24 -14 -17 -27 12 -9 18 -13 82 -13 195 l0 168 90 88 90 88 0 107 c0
88 3 107 15 107 12 0 15 -18 15 -98z"/>
<path d="M2017 9952 c-23 -25 -21 -65 3 -87 11 -10 20 -22 20 -27 0 -6 -25
-35 -55 -65 l-55 -56 0 -181 0 -182 -37 -35 c-21 -19 -59 -52 -85 -73 l-47
-38 0 -110 c0 -85 -4 -115 -16 -128 -20 -22 -19 -33 3 -53 25 -23 48 -21 66 4
13 19 13 25 0 50 -9 19 -14 60 -14 122 l0 95 73 63 c39 35 75 68 79 74 4 5 8
91 8 190 l0 181 60 59 c33 33 60 66 60 73 0 8 9 25 20 39 24 31 25 46 4 78
-20 30 -63 33 -87 7z"/>
<path d="M3173 9938 c-22 -11 -23 -16 -23 -132 0 -67 5 -128 10 -136 7 -12 38
-16 154 -18 181 -3 176 -8 176 155 0 145 2 143 -170 142 -69 0 -135 -5 -147
-11z"/>
<path d="M4654 9939 c-39 -11 -53 -49 -29 -85 13 -20 15 -68 15 -309 l0 -286
-135 -137 c-110 -111 -135 -142 -133 -162 6 -54 36 -36 189 117 l149 148 0
303 c0 264 2 306 16 328 32 48 -13 99 -72 83z"/>
<path d="M4807 9933 c-2 -5 -1 -63 1 -130 l4 -123 213 0 213 0 31 -26 c32 -27
40 -61 19 -82 -10 -10 -8 -17 8 -32 18 -18 22 -19 39 -6 17 13 18 18 8 35 -7
12 -13 29 -13 38 0 10 -16 35 -35 56 l-35 37 -211 0 -212 0 5 115 c3 91 1 115
-10 120 -18 7 -20 6 -25 -2z"/>
<path d="M7293 9893 l-43 -4 0 -50 c0 -50 -1 -50 -94 -145 l-95 -95 -1 -184
c0 -139 3 -184 12 -188 10 -3 12 35 10 182 l-3 186 96 95 c90 90 95 97 95 137
0 41 1 43 30 43 17 0 30 -4 30 -10 0 -5 -9 -10 -20 -10 -16 0 -20 -7 -20 -31
0 -25 -16 -47 -95 -125 l-94 -95 -1 -221 c0 -121 -2 -224 -5 -228 -3 -4 3 -7
12 -6 22 2 28 -21 6 -27 -17 -4 -17 -5 0 -6 20 -1 37 31 19 37 -9 3 -12 64
-12 225 l0 222 90 89 c50 49 90 86 90 82 0 -4 -33 -41 -74 -83 l-75 -75 -3
-264 c-2 -217 -1 -264 11 -264 8 0 11 -6 6 -17 -5 -15 -4 -16 6 -5 10 9 10 15
1 24 -9 9 -12 81 -12 263 l0 250 79 78 c50 49 78 84 74 93 -3 8 0 14 5 14 6 0
13 -8 15 -17 4 -14 5 -14 6 3 1 13 -6 24 -17 26 -10 3 -19 13 -19 21 0 12 8
16 31 14 29 -2 31 0 31 33 0 38 -3 39 -72 33z"/>
<path d="M4050 9818 c-24 -26 -25 -46 -5 -75 11 -16 15 -61 17 -194 3 -158 5
-174 21 -177 42 -8 47 11 47 194 0 109 4 174 10 174 6 0 10 15 10 33 0 61 -60
88 -100 45z"/>
<path d="M4943 9813 c-7 -2 -13 -9 -13 -15 0 -7 4 -7 13 0 16 14 42 -1 35 -19
-5 -12 23 -13 155 -11 l160 3 29 -28 c25 -24 29 -34 26 -73 -3 -39 0 -45 17
-45 18 0 20 6 17 50 -3 42 -9 56 -40 88 l-36 37 -162 0 c-98 0 -165 4 -169 10
-7 11 -13 11 -32 3z"/>
<path d="M5592 9808 c-13 -13 -18 -361 -6 -392 10 -25 46 -17 95 22 29 22 136
70 173 78 20 3 36 10 34 14 -2 5 -45 52 -96 107 -51 54 -111 117 -133 141 -44
46 -49 48 -67 30z"/>
<path d="M2048 9739 l-58 -60 0 -181 0 -181 -70 -67 -71 -67 3 -129 3 -129
125 -3 c107 -2 127 0 137 14 9 12 12 88 13 272 0 241 -1 254 -17 241 -17 -13
-17 -13 -1 6 14 17 17 44 17 165 0 142 -4 180 -17 180 -4 -1 -33 -28 -64 -61z"/>
<path d="M3408 9610 c29 -12 26 -44 -6 -48 -21 -3 -27 6 -23 36 2 9 -48 12
-220 12 l-222 0 -87 -90 -87 -90 -98 0 c-79 0 -102 3 -117 17 -24 22 -52 7
-56 -30 -2 -19 2 -27 18 -32 12 -4 27 -2 33 4 7 7 55 11 124 11 l113 0 86 85
86 85 204 0 c145 0 210 -4 224 -12 26 -17 55 1 55 33 0 18 -6 25 -25 26 l-25
3 23 -10z"/>
<path d="M7559 9507 c17 -22 1 -43 -24 -33 -14 5 -15 9 -5 21 10 12 6 13 -27
8 -21 -3 -39 -6 -40 -7 -1 -1 -3 -93 -4 -206 -2 -209 1 -229 36 -200 11 9 12
17 5 30 -6 10 -10 95 -10 189 l0 171 26 -11 c51 -19 85 12 47 42 -16 13 -17
12 -4 -4z"/>
<path d="M3380 9490 c-8 -5 -109 -10 -230 -10 l-215 0 -85 -85 -85 -85 -107 0
c-65 0 -108 4 -108 10 0 6 -11 10 -25 10 -32 0 -46 -44 -21 -68 13 -14 20 -14
36 -4 12 7 60 12 129 12 l110 0 85 85 85 85 205 0 c147 0 212 -4 226 -12 39
-25 77 23 45 56 -19 19 -24 19 -45 6z"/>
<path d="M3757 9432 c-21 -23 -22 -65 -2 -82 13 -11 15 -55 15 -284 l0 -271
28 -17 c15 -9 45 -30 67 -45 22 -16 63 -45 92 -65 108 -75 103 -66 103 -157 0
-49 -4 -81 -10 -81 -16 0 -31 -48 -24 -75 3 -13 18 -29 34 -35 70 -29 126 40
82 100 -19 25 -22 43 -22 118 l0 89 -52 33 c-29 19 -97 65 -150 103 l-98 69
-1 177 c-1 281 1 323 17 345 42 60 -31 131 -79 78z"/>
<path d="M4761 9353 c-12 -14 -24 -36 -27 -49 -6 -24 15 -72 40 -93 14 -12 16
-77 16 -571 l0 -558 -80 -78 -80 -78 0 -601 0 -601 38 -38 c34 -36 37 -43 37
-97 0 -50 4 -62 29 -88 79 -82 206 -29 206 86 0 38 -5 50 -35 80 -32 32 -38
34 -90 32 -49 -2 -58 1 -85 26 l-30 29 0 567 0 567 78 78 77 79 2 577 3 576
25 28 c56 60 17 154 -64 154 -31 0 -44 -6 -60 -27z m105 -2689 c25 -7 44 -43
44 -85 0 -21 -10 -40 -30 -61 -27 -26 -36 -30 -68 -25 -65 11 -98 76 -67 131
10 17 23 34 29 38 13 9 63 10 92 2z"/>
<path d="M3072 9348 c-31 -31 8 -80 47 -58 11 5 65 10 121 10 56 0 110 -5 121
-10 27 -15 61 5 57 32 -4 31 -33 46 -58 30 -24 -15 -226 -17 -235 -2 -8 14
-38 13 -53 -2z"/>
<path d="M2914 9322 c21 -25 14 -55 -11 -50 -12 2 -18 13 -18 30 1 15 -3 24
-7 22 -4 -3 -8 -13 -8 -22 0 -10 -22 -40 -49 -66 l-49 -49 -137 5 c-75 3 -138
1 -141 -4 -3 -5 -3 -20 0 -34 7 -24 39 -34 51 -14 4 6 55 10 121 10 l115 0 58
55 c32 30 65 55 73 55 33 0 37 54 6 71 -23 12 -23 12 -4 -9z"/>
<path d="M4035 9295 c-30 -29 -32 -63 -7 -96 15 -19 20 -49 25 -152 6 -119 5
-130 -13 -149 -26 -28 -26 -82 0 -108 24 -24 67 -26 98 -4 29 20 30 81 2 117
-18 22 -20 40 -20 147 0 107 2 125 20 147 11 14 20 37 20 50 0 32 -42 73 -75
73 -14 0 -37 -11 -50 -25z"/>
<path d="M3438 9249 c-10 -5 -18 -19 -18 -29 0 -11 -4 -20 -9 -20 -6 0 -45
-28 -88 -62 -43 -35 -84 -67 -91 -73 -7 -5 -22 -18 -32 -27 -10 -9 -28 -18
-41 -20 -31 -4 -47 -32 -30 -52 21 -25 60 -20 67 8 3 14 16 32 29 40 65 43
228 180 217 184 -17 5 -15 39 3 46 19 7 45 -3 45 -17 0 -6 -8 -19 -17 -30 -17
-19 -17 -20 5 -8 27 14 29 47 3 61 -23 12 -22 12 -43 -1z"/>
<path d="M3612 9238 c-20 -20 -15 -76 8 -88 19 -10 20 -21 20 -207 l0 -196
-33 -31 c-19 -17 -66 -60 -105 -95 l-72 -65 0 -113 c0 -92 -3 -115 -15 -119
-24 -10 -18 -52 10 -70 24 -16 27 -16 45 1 24 21 26 60 5 69 -12 4 -15 26 -15
110 0 90 3 107 18 118 11 7 60 51 110 98 l92 84 0 198 c0 190 1 200 22 229 21
28 21 32 7 57 -11 20 -24 28 -49 30 -19 2 -41 -3 -48 -10z"/>
<path d="M3432 9148 c-7 -7 -12 -17 -12 -23 0 -16 -227 -189 -260 -198 -33 -8
-48 -41 -29 -63 17 -21 52 -13 64 14 6 13 49 53 98 89 48 37 87 70 87 75 0 4
6 8 13 8 8 0 22 9 32 20 10 11 26 20 35 20 36 0 56 52 24 64 -24 9 -39 7 -52
-6z"/>
<path d="M4932 9107 c-28 -30 -28 -67 0 -102 l22 -28 -1 -485 -1 -485 -61 -61
-61 -62 0 -183 0 -183 30 -26 c26 -23 30 -33 30 -76 0 -69 34 -106 97 -106 61
0 93 32 93 94 0 67 -31 99 -96 99 -36 0 -55 5 -71 20 -22 20 -23 27 -23 177
l0 156 65 64 65 64 0 502 c0 488 1 501 20 519 28 25 26 76 -3 103 -31 29 -77
29 -105 -1z m110 -1650 c25 -32 22 -74 -7 -102 -28 -29 -45 -31 -84 -10 -52
26 -56 81 -9 120 36 31 72 28 100 -8z"/>
<path d="M6314 9101 c-124 -20 -314 -101 -409 -175 -219 -169 -344 -381 -382
-647 -16 -113 -16 -128 0 -251 17 -125 30 -170 84 -288 67 -145 196 -295 334
-386 216 -144 461 -190 738 -140 83 14 129 9 145 -17 26 -41 -36 -74 -69 -37
-16 18 -17 24 -7 41 7 10 8 19 4 19 -5 0 -14 -11 -20 -24 -12 -28 -41 -34
-202 -43 -265 -14 -497 61 -694 225 -406 335 -483 915 -180 1355 20 28 39 54
42 57 4 3 22 23 41 45 63 73 171 154 210 157 31 3 36 7 39 30 4 34 -27 54 -58
38 -11 -6 -20 -16 -20 -23 0 -7 -19 -26 -42 -43 -53 -37 -226 -210 -239 -238
-5 -11 -23 -41 -39 -66 -17 -25 -37 -61 -45 -80 -9 -19 -22 -48 -30 -65 -7
-16 -26 -70 -42 -120 -26 -85 -28 -100 -28 -275 0 -174 2 -190 28 -275 16 -49
37 -109 48 -132 10 -24 19 -45 19 -48 0 -2 18 -35 41 -72 59 -96 137 -191 205
-248 32 -27 61 -52 64 -55 15 -16 88 -59 165 -97 93 -46 110 -52 190 -75 71
-20 102 -23 270 -23 128 0 201 4 224 13 24 8 38 9 45 2 5 -5 25 -10 43 -10 58
0 71 75 17 103 -25 13 -25 13 28 30 90 28 241 128 311 205 l21 22 430 0 c420
0 432 -1 444 -20 19 -30 60 -26 68 7 13 51 -41 86 -68 44 -13 -21 -19 -21
-446 -21 l-433 0 -69 -59 c-117 -101 -200 -147 -360 -198 -79 -26 -97 -28
-255 -28 -182 0 -228 9 -380 72 -148 62 -313 200 -408 343 -58 88 -78 131
-120 260 -30 91 -31 101 -31 265 l0 170 38 110 c21 61 52 135 69 165 18 30 35
63 39 72 4 10 12 18 18 18 5 0 10 6 10 14 0 36 257 266 297 266 6 0 21 8 34
18 13 10 49 27 79 39 235 92 470 90 714 -5 53 -21 74 -35 89 -59 10 -18 20
-33 21 -33 1 0 2 12 1 28 0 22 4 27 25 27 34 0 40 -37 8 -53 -13 -6 -18 -11
-12 -11 5 -1 18 5 29 12 36 27 -3 90 -42 68 -10 -5 -33 0 -66 16 -28 14 -94
38 -147 55 -82 26 -114 30 -235 33 -77 2 -163 0 -191 -4z"/>
<path d="M2502 9068 c-7 -7 -12 -19 -12 -28 0 -9 5 -21 12 -28 9 -9 9 -15 0
-24 -7 -7 -12 -22 -12 -34 0 -26 34 -41 54 -24 13 10 395 9 481 -1 27 -4 30
-1 30 25 0 39 -27 56 -53 33 -16 -15 -45 -17 -229 -17 l-211 0 -31 29 c-39 36
-41 61 -5 61 22 0 26 -4 22 -22 -4 -22 -3 -23 73 -20 43 2 86 -1 95 -6 21 -12
51 -5 58 14 5 12 2 12 -17 -1 -27 -17 -53 -5 -43 20 4 12 14 16 32 12 23 -4
24 -3 11 10 -11 12 -19 12 -35 4 -26 -14 -169 -15 -177 -1 -8 14 -28 13 -43
-2z"/>
<path d="M3424 9035 c-3 -14 -9 -25 -13 -25 -4 0 -27 -18 -52 -40 -24 -22 -47
-40 -50 -40 -3 0 -16 -9 -29 -20 -13 -11 -56 -46 -97 -78 l-73 -57 0 -92 0
-93 -913 0 c-650 0 -916 3 -924 11 -14 14 -49 3 -58 -18 -5 -15 -4 -15 13 0
22 20 55 12 50 -12 -2 -10 -13 -16 -31 -16 -15 1 -27 -2 -27 -6 0 -13 32 -19
51 -8 13 7 325 11 947 12 l927 2 3 108 c1 59 6 107 10 107 7 0 136 100 172
133 30 28 117 85 135 88 48 10 44 69 -4 69 -24 0 -32 -5 -37 -25z"/>
<path d="M7413 9029 c-34 -22 -51 -69 -39 -107 5 -15 -9 -31 -66 -78 -40 -32
-101 -81 -134 -109 -34 -27 -77 -61 -95 -75 -18 -14 -103 -82 -189 -151 l-156
-126 -29 24 c-17 14 -59 38 -95 55 -126 60 -266 36 -374 -66 -79 -73 -100
-126 -100 -246 0 -84 3 -101 27 -148 60 -115 162 -182 288 -190 l77 -4 21
-107 c12 -58 28 -133 35 -166 9 -43 10 -65 2 -77 -7 -11 -14 -14 -20 -8 -15
15 -46 12 -52 -5 -5 -11 -10 -12 -26 -4 -26 14 -48 4 -48 -21 0 -25 22 -35 46
-22 12 7 24 6 36 -1 13 -9 23 -9 36 -1 9 6 31 9 49 7 25 -4 32 -1 38 17 5 17
10 19 21 9 18 -15 42 -5 54 23 5 13 9 17 9 11 1 -7 6 -13 12 -13 8 0 8 4 -1
15 -13 16 -6 35 15 35 21 0 28 -19 15 -35 -8 -10 -9 -15 -2 -15 6 0 14 9 17
20 4 14 12 19 24 15 24 -7 54 17 45 38 -9 24 -21 21 -20 -5 1 -14 -5 -23 -14
-23 -9 0 -15 9 -14 23 1 27 -12 29 -21 3 -4 -13 -12 -17 -29 -14 -18 4 -26 0
-31 -16 -5 -18 -9 -19 -26 -8 -17 10 -23 9 -39 -11 l-18 -22 -20 25 c-11 13
-22 48 -26 76 -4 29 -18 97 -31 152 -25 102 -25 117 1 117 20 0 95 41 130 71
42 36 81 97 105 165 31 88 21 169 -36 273 -12 23 -10 27 59 83 39 32 81 66 94
76 12 9 30 24 40 33 9 8 62 51 117 94 55 43 107 84 117 92 14 13 20 9 49 -34
78 -112 122 -221 149 -366 11 -61 20 -117 20 -124 0 -16 -161 -18 -191 -2 -29
15 -59 2 -59 -26 0 -30 28 -47 54 -33 10 6 63 10 118 10 79 0 101 3 105 15 3
8 -2 68 -11 134 -22 159 -64 270 -153 405 -18 28 -33 53 -33 56 0 3 34 34 76
68 l76 63 38 -13 c33 -11 43 -10 76 6 67 33 73 125 10 163 -42 26 -63 26 -103
0z m101 -25 c25 -24 29 -59 12 -93 -15 -28 -21 -31 -61 -31 -40 0 -46 3 -61
31 -28 55 2 109 61 109 18 0 41 -7 49 -16z m-960 -540 c33 -9 68 -22 77 -30 8
-8 20 -14 26 -14 5 0 20 -11 32 -24 22 -23 22 -25 5 -45 -22 -25 -28 -26 -47
-6 -8 8 -36 26 -63 40 -62 33 -160 35 -219 4 -53 -28 -110 -84 -131 -128 -26
-53 -24 -174 3 -226 44 -84 115 -131 213 -142 33 -3 60 -11 60 -17 0 -6 3 -22
7 -35 6 -24 6 -24 -58 -19 -169 14 -296 138 -316 309 -7 56 27 167 66 217 56
72 166 128 255 131 15 1 56 -6 90 -15z m226 -214 c24 -81 25 -120 4 -190 -20
-66 -59 -125 -110 -166 -38 -29 -122 -69 -131 -61 -2 2 -8 18 -12 35 -9 28 -7
30 22 36 45 9 106 58 141 114 25 39 31 60 34 124 4 66 1 82 -19 118 l-24 42
25 18 c33 25 45 13 70 -70z m-261 -15 c35 -18 55 -63 46 -104 -8 -39 -58 -81
-95 -81 -62 0 -119 87 -90 139 13 26 67 61 93 61 10 0 31 -7 46 -15z"/>
<path d="M4598 9018 c-23 -29 -23 -51 2 -73 18 -17 20 -31 20 -184 l0 -166
-120 -120 -120 -120 0 -181 0 -181 -76 -69 c-42 -38 -80 -70 -85 -72 -5 -2 -9
-53 -9 -113 0 -84 -4 -115 -16 -134 -15 -23 -15 -27 0 -50 20 -30 39 -32 66
-5 19 19 18 40 -1 65 -4 6 -9 57 -10 113 -3 94 -2 105 16 118 11 8 48 38 82
67 l62 52 0 185 1 185 125 125 125 125 0 163 c0 159 1 165 24 193 17 19 22 36
18 51 -12 49 -74 64 -104 26z"/>
<path d="M6429 8987 c-8 -8 -42 -17 -74 -21 -167 -20 -338 -106 -463 -234
-368 -374 -308 -977 127 -1266 136 -91 286 -136 452 -136 136 0 304 41 381 92
14 10 31 18 36 18 6 0 17 6 24 13 27 26 86 57 110 57 56 0 74 65 24 88 -33 15
-66 -9 -66 -48 0 -24 -9 -35 -52 -63 -92 -59 -127 -76 -211 -105 -76 -25 -94
-27 -247 -27 -142 0 -174 3 -232 22 -256 84 -449 276 -539 538 -22 63 -24 87
-24 235 0 148 2 172 24 235 82 241 241 415 466 512 83 36 247 71 253 54 6 -17
42 -13 49 5 3 8 -1 22 -9 30 -13 13 -17 14 -29 1z"/>
<path d="M3413 8919 c-6 -6 -8 -45 -5 -105 4 -81 3 -94 -11 -94 -9 0 -19 5
-22 10 -10 16 -62 12 -79 -6 -24 -23 -20 -70 6 -88 28 -20 52 -20 68 -1 8 10
30 15 60 15 l48 0 4 128 c2 70 0 133 -5 140 -12 15 -49 16 -64 1z"/>
<path d="M6385 8914 c-242 -57 -336 -104 -457 -229 -114 -117 -185 -260 -213
-428 -16 -90 -14 -107 9 -107 22 0 40 28 28 43 -13 16 12 166 39 224 11 24 24
53 29 65 25 57 107 164 161 210 113 94 122 100 254 151 77 30 86 31 235 31
146 0 159 -1 230 -28 127 -48 238 -115 225 -136 -9 -14 25 -40 51 -40 17 0 25
7 30 26 4 14 2 30 -3 35 -5 5 -9 -2 -8 -19 0 -22 -4 -27 -25 -27 -34 0 -40 37
-8 54 13 6 15 9 6 7 -10 -3 -20 -1 -24 5 -21 35 -180 112 -287 140 -78 20
-230 33 -272 23z"/>
<path d="M1653 8884 c-7 -3 -13 -16 -13 -29 0 -28 29 -48 51 -34 20 13 485 12
512 -2 21 -9 21 -9 4 5 -24 18 -18 51 8 51 15 0 20 -7 20 -28 -1 -31 18 -31
23 1 4 29 -32 48 -62 33 -23 -13 -473 -11 -511 1 -11 4 -26 5 -32 2z"/>
<path d="M1622 8788 c-17 -17 -15 -33 5 -49 15 -13 15 -12 6 6 -14 26 -6 45
18 45 25 0 37 -30 17 -44 -11 -8 58 -11 264 -11 153 0 274 2 268 3 -16 6 -12
42 6 49 8 3 22 -1 30 -9 14 -13 13 -17 -3 -33 -11 -12 -13 -17 -4 -14 8 3 19
13 25 23 15 23 -20 51 -49 39 -32 -12 -517 -15 -529 -3 -14 14 -39 13 -54 -2z"/>
<path d="M1611 8696 c-16 -19 -11 -48 9 -54 12 -4 13 -2 3 9 -29 30 0 59 34
33 16 -13 17 -15 2 -26 -13 -11 39 -13 267 -13 156 0 279 2 274 3 -14 5 -12
39 3 44 20 8 37 -2 37 -22 0 -10 -6 -21 -12 -23 -8 -4 -9 -6 -2 -6 6 -1 17 6
24 15 11 13 10 19 -8 36 -18 19 -25 20 -44 10 -26 -14 -517 -12 -554 2 -14 5
-24 2 -33 -8z"/>
<path d="M3831 8668 c-1 -10 -8 -18 -16 -18 -13 0 -15 -20 -15 -122 l0 -123
-95 -94 -94 -94 -3 -132 c-2 -110 -1 -132 11 -127 8 3 20 -3 27 -13 8 -10 14
-14 14 -8 0 7 -4 15 -10 18 -6 4 -10 59 -10 131 l0 126 90 90 90 91 0 121 c0
76 4 126 11 133 6 6 9 17 6 25 -4 9 -6 7 -6 -4z"/>
<path d="M4169 8611 c-40 -41 -40 -91 1 -133 l30 -30 0 -214 0 -214 -55 -55
-55 -55 -115 0 -115 0 0 -779 c0 -717 -1 -782 -17 -809 -14 -24 -15 -35 -6
-55 25 -55 113 -37 113 23 0 16 -4 32 -10 35 -7 4 -10 270 -10 766 l0 759 101
-1 100 -1 65 66 64 67 0 239 c0 156 4 240 10 240 16 0 50 62 50 91 0 16 -12
40 -29 58 -39 41 -82 42 -122 2z"/>
<path d="M3640 8550 c-8 -5 -36 -10 -61 -10 l-47 0 -4 -132 c-3 -78 -1 -138 5
-145 14 -18 54 -16 65 3 5 9 7 57 4 107 l-5 90 24 -7 c72 -23 112 -9 112 39 0
50 -53 81 -93 55z"/>
<path d="M3896 8531 c-14 -16 -17 -28 -11 -58 4 -21 9 -83 12 -138 4 -100 4
-101 -26 -139 -39 -49 -40 -85 -2 -125 47 -51 120 -40 146 22 17 42 8 84 -21
104 -23 14 -24 21 -24 121 0 58 5 121 12 139 10 28 10 39 -3 61 -19 34 -58 40
-83 13z"/>
<path d="M2410 8516 c-21 -26 -8 -60 27 -71 18 -6 48 -25 66 -43 l33 -32 232
0 233 0 49 -48 c53 -52 61 -77 34 -117 -20 -31 -4 -65 31 -65 29 0 45 42 26
71 -6 10 -11 34 -11 52 0 27 -11 43 -58 90 l-58 57 -235 0 -235 0 -27 28 c-15
15 -27 38 -27 50 0 36 -56 56 -80 28z"/>
<path d="M1625 8485 c0 -19 6 -20 205 -17 l205 3 34 -35 c32 -33 33 -38 22
-62 -10 -22 -9 -30 3 -42 24 -25 38 -5 30 46 -5 35 -16 57 -42 84 l-35 37
-211 3 c-205 3 -211 2 -211 -17z"/>
<path d="M7465 8487 c14 -22 14 -26 0 -37 -8 -7 -22 -10 -30 -6 -18 7 -20 42
-2 49 9 4 9 6 0 6 -18 1 -26 -17 -19 -45 5 -17 13 -24 31 -24 13 0 27 5 30 10
4 6 76 10 183 10 l177 0 48 -46 c26 -26 59 -64 73 -85 27 -43 48 -49 64 -19
14 26 4 60 -18 60 -10 0 -48 29 -85 65 l-67 66 -179 -1 c-118 -1 -187 2 -201
10 -21 11 -21 11 -5 -13z"/>
<path d="M2221 8471 c-12 -16 -21 -44 -21 -63 0 -28 -11 -44 -68 -101 -66 -65
-69 -70 -71 -120 -1 -29 -7 -66 -13 -83 -14 -38 -7 -58 27 -80 25 -16 27 -16
53 3 28 22 29 22 16 130 l-6 51 58 61 c50 52 62 59 86 54 61 -12 109 52 88
119 -13 44 -34 58 -89 58 -32 0 -43 -5 -60 -29z"/>
<path d="M1909 8419 c-52 -20 -66 -104 -24 -143 l25 -23 0 -231 0 -231 -75
-73 -75 -73 0 -310 0 -311 38 -37 c37 -36 38 -40 34 -91 -4 -50 -2 -55 31 -89
45 -45 84 -54 133 -31 67 32 90 99 58 167 -25 52 -103 83 -144 57 -10 -6 -23
0 -47 25 l-33 34 0 275 -1 276 81 81 80 81 0 242 0 242 25 22 c72 63 -14 176
-106 141z m102 -1468 c59 -59 21 -152 -63 -153 -81 -1 -117 86 -62 151 35 42
84 43 125 2z"/>
<path d="M1745 8370 c-11 -5 -46 -9 -77 -9 l-58 -1 0 -268 c0 -178 -4 -272
-11 -279 -18 -18 -6 -65 19 -74 17 -6 27 -4 42 11 24 24 25 43 5 64 -13 13
-15 52 -13 258 l3 243 29 3 c19 2 34 -3 47 -17 11 -12 24 -21 29 -21 17 0 51
41 48 57 -5 24 -40 42 -63 33z"/>
<path d="M4492 8344 c-23 -16 -29 -53 -12 -84 8 -15 10 -83 7 -340 0 -25 2
-97 6 -160 3 -74 2 -119 -5 -127 -6 -8 -7 -26 -3 -45 4 -18 10 -126 12 -241
l4 -207 -38 -41 c-110 -120 -163 -169 -175 -164 -19 8 -68 -12 -84 -33 -20
-26 -17 -86 7 -116 16 -21 29 -26 64 -26 61 0 103 49 90 103 -4 18 16 44 99
132 l105 110 4 240 c3 132 5 245 5 250 0 6 -2 154 -4 330 -3 216 0 329 7 347
8 19 8 32 -2 50 -22 41 -49 49 -87 22z"/>
<path d="M2894 8320 c-32 -13 -49 -63 -34 -100 7 -16 21 -32 31 -35 18 -6 19
-21 19 -325 0 -273 -2 -319 -15 -324 -33 -12 -2 -76 36 -76 32 0 55 59 29 75
-6 4 -10 122 -10 322 l0 315 25 20 c31 24 35 86 8 111 -23 20 -63 28 -89 17z"/>
<path d="M7546 8236 c-35 -46 -33 -80 4 -118 27 -27 36 -30 73 -25 25 4 48 14
59 27 16 20 24 21 145 17 70 -2 140 -7 155 -11 30 -9 68 21 68 54 0 31 -40 63
-70 54 -14 -4 -82 -9 -152 -11 -124 -4 -126 -4 -152 21 -18 19 -36 26 -64 26
-33 0 -44 -5 -66 -34z"/>
<path d="M2298 8219 c-10 -5 -18 -21 -18 -34 0 -16 -4 -23 -13 -19 -8 3 -20
-3 -28 -12 -11 -13 -11 -18 -1 -21 9 -4 12 -66 12 -267 l0 -262 -60 -59 -60
-59 0 -63 c0 -47 -5 -68 -17 -80 -17 -17 -16 -20 15 -51 17 -19 29 -27 26 -18
-4 10 0 18 10 22 13 5 16 22 16 88 l0 82 60 57 61 57 74 0 c43 0 75 -4 75 -10
0 -16 30 -11 37 6 8 22 -13 42 -29 26 -7 -7 -43 -12 -93 -12 l-81 0 -62 -63
-62 -63 0 -67 c0 -43 -4 -66 -10 -62 -5 3 -10 35 -10 71 l0 64 65 64 64 63 3
270 c2 176 0 270 -7 269 -5 -1 -11 4 -13 9 -3 12 36 16 44 4 3 -5 15 -9 28 -9
36 0 66 -43 66 -95 0 -25 -4 -45 -9 -45 -16 0 -23 -38 -11 -60 9 -16 19 -20
43 -18 27 3 33 8 35 32 2 16 -1 33 -7 39 -6 6 -11 33 -11 59 0 40 -5 54 -30
80 -16 17 -30 41 -30 52 0 41 -35 57 -72 35z"/>
<path d="M2533 8160 c-44 -18 -56 -77 -23 -110 19 -19 20 -33 20 -440 0 -407
-1 -421 -20 -440 -41 -41 -10 -110 49 -110 20 0 36 9 50 26 26 33 26 45 1 77
-19 24 -20 40 -20 448 0 345 3 425 14 438 30 34 29 60 -3 91 -32 32 -35 33
-68 20z"/>
<path d="M3034 8065 c-32 -43 -28 -94 11 -119 l25 -16 0 -231 0 -231 -102
-104 -102 -104 -53 52 c-29 29 -51 58 -49 64 7 18 -23 54 -44 54 -11 0 -27
-11 -35 -24 -21 -31 -5 -66 28 -66 23 0 117 -85 117 -105 0 -6 -58 -69 -130
-140 l-130 -129 0 -290 c0 -182 -4 -294 -10 -300 -18 -18 -12 -74 9 -86 63
-33 123 20 91 81 -7 12 -11 124 -11 296 l1 278 245 245 245 245 0 247 0 246
27 20 c22 16 28 28 28 60 0 58 -34 92 -91 92 -37 0 -47 -5 -70 -35z"/>
<path d="M3264 8056 c-30 -30 -34 -40 -34 -86 0 -46 4 -56 35 -87 32 -32 39
-35 88 -31 48 3 57 0 85 -27 l32 -30 0 -140 0 -140 -80 -83 -80 -83 0 -206 0
-207 -26 -27 c-68 -71 0 -179 93 -148 46 15 67 60 52 113 -5 19 -19 40 -29 46
-19 10 -20 22 -20 206 l0 196 80 79 80 80 0 172 0 173 -39 38 c-37 36 -39 41
-38 98 2 57 0 61 -35 94 -32 28 -45 34 -84 34 -39 0 -51 -5 -80 -34z m124 -7
c56 -19 65 -110 14 -149 -79 -62 -185 29 -133 114 28 45 62 55 119 35z"/>
<path d="M8045 8045 c-30 -29 -31 -49 -5 -75 14 -14 20 -33 20 -65 l0 -45
-283 0 -283 0 -69 -70 -69 -70 -94 0 c-79 0 -97 3 -121 21 -25 18 -32 19 -52
8 -13 -6 -27 -17 -31 -23 -13 -19 -9 -73 7 -86 21 -18 77 -15 87 4 7 13 30 16
118 16 l110 0 72 70 72 70 296 2 295 3 0 67 c0 49 5 71 18 85 25 28 22 78 -5
97 -32 22 -55 20 -83 -9z"/>
<path d="M2693 8038 c-19 -25 -21 -46 -10 -80 8 -22 11 -91 9 -198 l-3 -165
-39 -44 c-44 -49 -50 -75 -21 -91 16 -8 29 -1 80 47 l61 56 0 185 c0 118 4
198 12 218 18 50 -1 84 -46 84 -18 0 -38 -6 -43 -12z"/>
<path d="M5860 7725 c-16 -19 -3 -55 20 -55 12 0 20 -8 22 -22 2 -13 12 -27
24 -32 11 -5 25 -19 30 -30 6 -14 18 -21 35 -21 16 0 25 -4 22 -11 -6 -17 24
-37 47 -31 15 4 20 0 20 -13 0 -20 33 -36 50 -25 5 3 10 -1 10 -9 0 -8 9 -20
19 -26 25 -13 27 -13 45 6 39 38 -3 75 -55 49 -37 -20 -63 -13 -56 15 3 11 1
20 -4 20 -5 0 -9 9 -9 19 0 10 -8 22 -17 26 -15 5 -16 4 -5 -6 19 -20 15 -51
-5 -47 -13 2 -19 14 -20 36 -2 50 -10 62 -39 62 -15 0 -24 3 -21 6 12 12 -14
44 -34 44 -15 0 -19 4 -15 16 14 35 -39 59 -64 29z"/>
<path d="M3718 7676 c-22 -16 -24 -69 -3 -86 13 -11 15 -69 15 -438 l-1 -426
-45 -48 c-31 -33 -44 -56 -42 -71 5 -39 39 -31 101 26 l57 54 0 448 c0 294 3
452 10 459 16 16 12 68 -7 82 -10 7 -29 13 -43 13 -14 0 -33 -6 -42 -13z"/>
<path d="M8310 7674 c-24 -8 -53 -55 -53 -87 0 -22 11 -39 41 -68 23 -21 42
-43 42 -49 0 -5 9 -29 20 -53 10 -23 26 -60 34 -82 21 -59 55 -147 66 -170 5
-11 16 -38 24 -60 8 -22 24 -64 36 -94 37 -94 43 -88 -218 -205 -103 -46 -136
-54 -146 -37 -11 17 -74 22 -108 8 -47 -20 -70 -50 -75 -100 -7 -58 16 -101
68 -128 70 -35 151 0 170 76 10 39 13 41 112 84 56 24 125 55 153 68 28 12 54
23 58 23 19 0 79 57 92 88 23 57 17 94 -41 227 -7 17 -27 68 -45 115 -17 47
-38 99 -45 115 -50 118 -72 193 -68 235 4 38 1 49 -19 67 -24 23 -70 35 -98
27z m-146 -956 c23 -26 27 -37 22 -66 -8 -52 -41 -82 -90 -82 -44 1 -66 13
-84 47 -25 47 -5 109 43 129 40 17 74 8 109 -28z"/>
<path d="M4346 7598 c-8 -12 -13 -25 -10 -30 3 -5 -12 -24 -33 -43 -183 -166
-183 -166 -183 -222 0 -51 -1 -52 -65 -109 l-65 -58 0 -277 c0 -188 -4 -286
-11 -303 -9 -20 -9 -29 1 -41 30 -36 87 6 62 45 -13 22 -18 570 -4 570 4 0 24
16 45 36 l37 35 0 -219 c0 -206 -1 -220 -20 -237 -26 -24 -25 -59 2 -85 26
-24 31 -24 68 -5 24 13 30 22 30 50 0 24 -6 37 -20 45 -19 10 -20 21 -20 303
l1 292 55 50 c30 28 75 69 100 93 27 25 55 42 69 42 47 0 54 67 9 84 -25 10
-32 7 -48 -16z"/>
<path d="M2285 7551 c-3 -11 -25 -39 -49 -63 l-44 -43 -4 -96 c-3 -91 -3 -96
15 -91 14 4 18 1 15 -9 -3 -8 -14 -13 -24 -12 -18 1 -18 1 0 -13 32 -23 46 -1
46 71 l0 63 60 58 c63 60 90 115 68 141 -8 9 -14 10 -23 3 -9 -8 -15 -8 -20 0
-10 16 -33 12 -40 -9z"/>
<path d="M3170 7385 c-13 -16 -6 -65 10 -65 6 0 10 -60 10 -155 l0 -155 -140
0 -140 0 0 -317 c1 -232 4 -321 13 -332 9 -12 9 -13 0 -7 -9 5 -13 -2 -13 -24
0 -18 -9 -43 -20 -57 -32 -42 -26 -79 18 -102 19 -10 28 -10 48 3 35 24 40 59
14 95 -23 34 -21 -7 -20 474 l0 237 140 0 140 0 0 165 c0 98 4 174 11 188 22
49 -37 93 -71 52z"/>
<path d="M7323 7361 c-17 -11 -34 -28 -37 -38 -11 -33 1 -87 23 -104 20 -17
21 -25 21 -248 l0 -231 -75 -75 -75 -75 0 -200 0 -200 39 -42 c22 -23 37 -46
34 -51 -10 -17 -5 -75 11 -105 44 -85 175 -80 212 7 19 45 18 64 -6 111 -23
44 -71 66 -127 57 -31 -5 -40 -2 -64 24 l-29 31 0 168 0 168 80 80 80 81 0
242 0 242 25 23 c48 44 27 119 -41 144 -33 13 -34 13 -71 -9z m110 -1249 c58
-54 17 -152 -63 -152 -110 0 -124 152 -17 181 29 8 46 1 80 -29z"/>
<path d="M3082 7318 c-7 -7 -12 -20 -12 -29 0 -10 -77 -91 -170 -180 l-170
-163 0 -374 1 -374 -26 -24 c-14 -12 -25 -31 -25 -41 0 -32 29 -63 59 -63 55
0 82 68 41 105 -19 17 -20 31 -20 385 l0 366 83 77 c45 42 120 112 166 156 46
45 92 81 101 81 9 0 25 9 35 20 37 41 -24 97 -63 58z"/>
<path d="M7136 7264 c-9 -8 -16 -21 -16 -28 0 -8 -29 -43 -64 -80 l-64 -66
-71 0 -71 0 -120 -120 c-66 -66 -127 -120 -137 -120 -23 0 -38 -11 -46 -33
-11 -29 10 -57 43 -57 32 0 37 5 43 41 3 14 52 71 118 137 l113 112 67 0 68 0
76 73 c41 39 85 74 98 77 29 7 36 49 11 67 -23 17 -29 16 -48 -3z"/>
<path d="M7753 7213 l-33 -4 0 -225 c0 -162 -3 -230 -12 -244 -11 -17 -10 -22
2 -30 41 -27 43 -16 41 238 -2 209 0 242 13 242 8 0 18 -4 21 -10 10 -16 42
-12 49 6 12 32 -1 37 -81 27z"/>
<path d="M8059 7199 c-8 -16 -8 -28 0 -46 6 -13 11 -40 11 -60 0 -35 0 -35
-25 -19 -13 9 -43 16 -65 16 -22 0 -49 5 -59 12 -39 24 -72 -22 -36 -52 13
-10 19 -10 33 4 28 24 78 20 118 -10 30 -24 34 -32 34 -74 0 -30 -6 -52 -15
-60 -25 -20 -19 -67 11 -87 24 -15 28 -15 52 0 32 18 41 67 18 87 -13 10 -16
36 -16 126 0 64 4 115 10 119 26 16 -5 65 -40 65 -11 0 -24 -10 -31 -21z"/>
<path d="M3500 7183 c-35 -24 -40 -33 -40 -75 0 -26 7 -44 25 -62 l25 -25 0
-228 0 -227 -61 -62 -62 -62 -78 76 c-43 42 -75 80 -73 84 9 15 -25 58 -46 58
-24 0 -49 -35 -43 -61 6 -21 38 -43 51 -35 5 3 43 -30 85 -72 l77 -77 -175
-175 -175 -175 0 -639 c0 -463 -3 -649 -12 -672 -16 -44 9 -84 52 -84 43 0 63
25 54 69 -4 20 -9 321 -11 668 l-3 633 245 245 245 245 0 244 0 244 31 33 c26
28 30 39 25 69 -10 67 -82 100 -136 63z"/>
<path d="M4781 7171 c-7 -13 -6 -24 4 -37 22 -29 21 -226 -2 -261 -16 -25 -16
-26 6 -44 17 -14 27 -16 42 -9 20 11 26 54 9 65 -14 9 -13 228 1 242 7 7 9 23
5 37 -8 32 -50 36 -65 7z"/>
<path d="M4897 7183 c-15 -15 -6 -22 13 -11 17 11 22 10 30 -2 5 -8 8 -19 7
-25 -5 -14 -38 -19 -46 -7 -3 5 -6 -62 -5 -149 0 -176 7 -200 46 -162 19 19
20 26 10 48 -15 32 -16 255 -2 255 14 0 13 33 -2 48 -13 13 -41 16 -51 5z"/>
<path d="M5000 7175 c-11 -13 -11 -21 -2 -36 17 -26 16 -243 0 -270 -11 -18
-10 -23 10 -40 18 -14 28 -16 43 -9 20 11 26 54 9 65 -15 9 -13 221 2 245 25
40 -33 81 -62 45z"/>
<path d="M5109 7169 c-8 -15 -8 -24 0 -32 14 -14 15 -242 0 -268 -8 -16 -7
-25 7 -40 9 -10 21 -19 25 -19 12 0 39 30 39 43 0 7 -5 4 -11 -5 -15 -27 -49
-23 -49 5 0 30 9 38 29 28 14 -8 16 3 13 111 -3 83 0 128 9 144 10 19 9 26 -1
39 -18 21 -47 19 -61 -6z"/>
<path d="M7135 7154 c-9 -9 -14 -22 -11 -29 2 -7 -27 -43 -64 -80 l-69 -68
-70 2 -70 2 -120 -120 c-66 -67 -128 -121 -138 -121 -25 0 -39 -11 -47 -36
-10 -32 19 -57 56 -50 44 9 30 -17 -15 -27 -40 -10 -54 -35 -37 -67 15 -27 65
-27 80 0 6 11 8 24 5 29 -5 8 96 114 201 211 38 35 46 38 82 33 64 -9 87 2
163 77 39 38 81 70 93 72 16 2 21 10 21 32 0 40 -27 56 -54 32 -12 -11 -21
-26 -21 -33 0 -8 -29 -44 -64 -79 l-63 -63 -71 -2 -70 -2 -94 -94 c-51 -52
-101 -99 -111 -104 -15 -9 -17 -7 -14 16 2 18 41 64 116 141 l113 114 72 0 72
0 69 70 c38 39 77 70 85 70 40 0 55 61 21 80 -25 13 -27 13 -46 -6z"/>
<path d="M7492 7098 c-5 -7 -9 -56 -9 -110 2 -109 12 -132 48 -109 15 9 24 10
32 2 17 -17 45 -13 50 7 4 15 3 175 -1 210 -3 17 -27 15 -46 -4 -15 -14 -17
-14 -32 0 -19 19 -28 20 -42 4z"/>
<path d="M7132 6928 c-6 -6 -12 -18 -12 -25 0 -7 -28 -42 -63 -78 l-63 -65
-71 0 -71 0 -119 -120 c-66 -66 -127 -120 -135 -120 -28 0 -48 -11 -48 -27 0
-12 3 -12 16 2 9 9 23 14 31 11 8 -3 17 -6 19 -6 13 0 1 -51 -13 -59 -17 -10
-17 -10 -1 -11 20 0 25 7 32 42 2 16 47 68 117 137 l112 111 69 0 68 0 68 66
c37 36 82 72 100 80 28 11 33 18 30 41 -2 21 -9 29 -28 31 -14 2 -31 -3 -38
-10z"/>
<path d="M4432 6905 c-26 -12 -32 -20 -32 -45 0 -17 9 -39 20 -50 19 -19 20
-33 20 -203 l0 -182 -100 -89 -100 -88 0 -383 c0 -345 -2 -386 -17 -413 -17
-29 -17 -31 1 -51 11 -12 27 -21 36 -21 20 0 46 27 36 37 -3 3 -6 1 -6 -6 0
-8 -11 -11 -27 -9 -22 2 -28 8 -28 28 0 20 6 26 27 28 19 2 28 -2 31 -15 4
-16 5 -16 6 -1 0 9 -3 20 -9 23 -6 4 -10 144 -10 388 l0 382 100 88 100 88 0
192 c0 181 1 193 20 205 14 8 20 23 20 47 0 28 -6 37 -28 49 -23 12 -32 12
-60 1z"/>
<path d="M7490 6831 c-7 -15 -6 -23 5 -35 12 -11 15 -42 15 -140 0 -124 0
-126 23 -127 12 -1 83 -2 157 -3 143 -2 169 -8 149 -32 -18 -22 -425 -20 -450
2 -34 31 -80 -6 -59 -47 7 -13 7 -25 0 -38 -21 -41 25 -78 59 -47 25 23 432
24 451 1 18 -22 39 -18 52 10 8 19 8 28 -2 40 -10 12 -10 18 0 30 10 12 10 21
2 41 -9 18 -9 29 0 43 21 34 -30 69 -58 41 -7 -7 -64 -10 -150 -8 l-139 3 -3
100 c-2 61 2 108 9 121 14 27 9 56 -11 61 -12 4 -12 3 -2 -5 20 -14 10 -47
-13 -47 -23 0 -33 34 -13 46 9 6 9 9 1 9 -7 0 -17 -9 -23 -19z m345 -401 c0
-13 -32 -15 -219 -18 -145 -1 -223 1 -230 8 -24 24 25 30 234 27 183 -2 215
-4 215 -17z"/>
<path d="M7137 6822 c-10 -10 -17 -25 -17 -33 0 -8 -28 -43 -63 -77 l-63 -62
-69 0 -70 0 -122 -120 c-69 -68 -130 -120 -141 -120 -19 0 -59 -36 -50 -45 3
-3 11 1 18 10 16 19 44 19 60 0 25 -30 -30 -61 -58 -33 -9 9 -12 9 -12 1 0
-15 35 -26 59 -18 25 8 34 31 21 55 -8 15 -7 18 2 15 7 -3 62 44 123 105 l110
110 70 0 71 0 64 66 c36 36 80 72 98 79 23 10 32 20 32 37 0 45 -35 61 -63 30z"/>
<path d="M4990 6725 l0 -55 320 0 320 0 0 55 0 55 -320 0 -320 0 0 -55z"/>
<path d="M2019 6725 c-46 -30 -66 -61 -74 -117 -16 -104 38 -177 152 -205 23
-6 46 -26 82 -73 28 -36 56 -72 64 -80 7 -9 39 -49 71 -90 33 -41 68 -84 78
-95 10 -11 25 -29 33 -40 13 -19 16 -18 77 40 l63 60 -58 -61 c-51 -54 -58
-64 -48 -82 6 -11 14 -22 18 -24 5 -1 23 -21 42 -43 61 -72 166 -189 189 -211
l22 -21 0 -609 0 -609 -36 -20 c-68 -37 -114 -118 -114 -202 0 -107 46 -185
137 -232 65 -33 163 -30 228 8 79 45 125 124 125 216 0 91 -45 173 -114 210
l-36 20 0 651 0 651 -76 78 c-42 43 -108 117 -147 164 -87 104 -109 127 -120
123 -5 -1 -6 1 -4 5 3 5 -33 56 -79 113 -108 133 -125 154 -146 182 -9 13 -28
37 -41 53 -20 24 -25 45 -29 104 l-4 74 -49 44 c-47 41 -53 43 -110 42 -45 0
-69 -6 -96 -24z m183 -53 c24 -23 32 -42 35 -79 7 -67 -15 -109 -70 -134 -53
-24 -61 -24 -114 3 -91 45 -98 166 -14 224 51 36 120 30 163 -14z m713 -2273
c24 -11 51 -35 68 -61 25 -38 28 -50 25 -109 -4 -85 -33 -131 -104 -165 -62
-29 -91 -30 -154 -3 -72 31 -110 91 -110 174 0 86 39 145 113 174 58 22 99 20
162 -10z"/>
<path d="M7132 6708 c-6 -6 -12 -18 -12 -25 0 -8 -29 -43 -64 -80 l-63 -66
-70 2 -70 2 -120 -120 c-68 -69 -128 -121 -139 -121 -39 0 -61 -38 -44 -71 22
-39 98 -12 88 31 -2 6 49 62 112 125 l115 115 70 0 70 0 65 66 c36 36 80 72
98 80 28 11 33 18 30 41 -2 21 -9 29 -28 31 -14 2 -31 -3 -38 -10z"/>
<path d="M4233 6668 c-24 -12 -33 -35 -33 -90 0 -29 6 -41 25 -54 46 -30 34
-53 -105 -193 l-130 -131 0 -1899 0 -1899 -33 -19 c-23 -14 -37 -32 -45 -62
-11 -36 -10 -47 6 -84 19 -43 66 -77 106 -77 56 0 126 66 126 119 0 35 -36 96
-64 109 l-26 12 0 1884 0 1884 130 131 c123 124 130 133 130 170 0 29 5 43 19
50 10 6 24 24 31 41 32 76 -58 146 -137 108z m97 -28 c23 -23 26 -68 8 -93 -7
-9 -27 -20 -45 -23 -26 -5 -36 -2 -57 21 -32 34 -32 47 -4 85 26 36 68 40 98
10z m-236 -4302 c23 -25 27 -37 23 -64 -7 -43 -52 -83 -93 -84 -24 0 -40 9
-63 35 -36 42 -39 72 -10 109 42 53 95 55 143 4z"/>
<path d="M5073 6615 c-24 -17 -32 -68 -13 -80 6 -4 10 -164 10 -448 l0 -442
-40 -35 c-44 -38 -50 -51 -20 -43 23 6 39 -22 22 -39 -8 -8 -16 -7 -28 3 -15
12 -17 12 -12 -1 10 -32 43 -21 98 35 l55 56 3 452 c2 274 6 455 12 461 14 14
12 49 -2 69 -19 24 -60 30 -85 12z"/>
<path d="M6360 6505 c-11 -13 -61 -15 -340 -15 l-328 0 -78 -81 -79 -80 -122
3 c-66 2 -117 0 -111 -3 17 -11 4 -44 -17 -44 -23 0 -33 33 -13 47 10 8 10 9
-2 5 -21 -5 -24 -41 -5 -57 13 -11 21 -11 36 -2 11 7 62 12 132 12 l112 0 85
85 85 85 317 0 c200 0 319 -4 323 -10 3 -5 17 -10 30 -10 28 0 41 30 25 60
-13 24 -33 26 -50 5z"/>
<path d="M4553 6491 c-30 -25 -32 -95 -4 -110 16 -9 19 -25 23 -113 3 -78 9
-112 24 -138 18 -33 19 -60 22 -429 2 -341 1 -396 -13 -417 -46 -71 23 -145
99 -105 37 20 46 74 17 105 -21 22 -21 29 -21 397 l0 374 -30 85 c-36 101 -42
210 -13 242 9 11 17 35 17 55 0 64 -71 95 -121 54z"/>
<path d="M3610 6480 c-12 -22 -5 -60 11 -60 5 0 9 -66 9 -155 l0 -155 -140 0
-139 0 -1 -362 c0 -348 -1 -362 -20 -380 -42 -40 -15 -98 45 -98 53 0 76 63
35 97 -19 17 -20 30 -20 268 0 187 -3 254 -12 264 -10 11 -10 13 0 7 9 -6 12
13 12 78 l0 86 135 0 135 0 0 169 c0 138 3 171 15 181 18 15 20 51 3 68 -19
19 -56 14 -68 -8z"/>
<path d="M3520 6411 c-5 -11 -10 -25 -10 -32 0 -7 -28 -40 -63 -73 -35 -34
-111 -107 -170 -163 l-107 -103 0 -95 c0 -83 -2 -96 -19 -105 -36 -19 -34 -77
3 -102 19 -13 54 -9 70 8 23 23 21 81 -4 94 -18 9 -20 21 -20 94 0 62 4 87 15
96 8 7 12 17 8 23 -3 5 -2 8 3 4 5 -3 77 60 159 139 94 90 157 144 170 144 27
0 45 18 45 45 0 44 -60 63 -80 26z"/>
<path d="M6365 6380 c-4 -6 -128 -10 -338 -10 l-332 0 -85 -85 -85 -85 -97 0
c-53 0 -108 5 -122 11 -20 9 -29 9 -41 -1 -19 -16 -16 -52 5 -57 12 -4 12 -3
2 5 -20 14 -10 47 13 47 21 0 34 -33 17 -44 -6 -3 45 -5 113 -3 l123 4 84 84
83 84 328 0 c211 0 327 -4 327 -10 0 -14 33 -13 48 2 14 14 16 44 3 52 -4 3
-6 -6 -3 -19 5 -31 -22 -45 -45 -22 -14 13 -13 17 6 36 12 12 17 21 12 21 -6
0 -13 -4 -16 -10z"/>
<path d="M5750 6231 c-7 -15 -5 -25 9 -42 18 -22 19 -22 44 -6 22 14 54 17
215 17 136 0 192 3 201 13 11 10 13 10 7 0 -5 -10 8 -13 55 -13 42 0 68 -5 79
-15 32 -29 77 17 50 50 -14 17 -46 20 -55 5 -4 -6 -105 -10 -270 -10 -165 0
-266 4 -270 10 -11 17 -54 11 -65 -9z"/>
<path d="M7070 6230 c-12 -7 -14 -29 -12 -111 2 -56 0 -99 -5 -97 -4 2 -20 10
-34 17 -59 29 -117 -42 -73 -90 19 -21 64 -25 81 -8 6 6 33 12 60 13 l48 1 2
120 c2 87 0 115 -8 103 -13 -23 -55 -23 -63 -2 -13 34 35 59 62 32 7 -7 12 -8
12 -2 0 28 -41 43 -70 24z"/>
<path d="M7629 6224 c-13 -13 -15 -33 -11 -110 3 -52 1 -94 -4 -94 -5 0 -18 7
-28 15 -29 22 -62 18 -80 -10 -21 -32 -20 -58 2 -78 20 -18 72 -23 88 -8 17
16 113 19 125 5 13 -16 65 -19 74 -4 3 6 28 10 56 10 l49 0 0 94 c0 52 5 107
10 121 12 32 -1 61 -31 70 -41 13 -52 -14 -50 -119 2 -94 -4 -111 -29 -81 -18
21 -53 19 -85 -7 l-28 -22 6 106 c6 108 1 128 -33 128 -9 0 -23 -7 -31 -16z"/>
<path d="M5637 6213 c-4 -3 -7 -13 -7 -22 0 -9 -24 -40 -54 -68 l-54 -53 -105
0 c-84 0 -106 3 -111 15 -14 39 -64 -5 -51 -45 7 -21 49 -28 60 -10 4 6 54 10
118 10 l113 0 54 55 c30 30 62 55 72 55 25 0 43 37 27 56 -12 14 -51 19 -62 7z"/>
<path d="M3817 6112 c-10 -10 -17 -26 -17 -35 0 -9 -13 -29 -30 -43 l-30 -27
0 -445 c1 -385 -1 -447 -15 -462 -20 -22 -19 -33 5 -55 24 -22 65 -14 73 14 3
11 -1 32 -9 47 -10 19 -14 72 -14 208 0 132 -3 186 -12 195 -10 11 -10 13 0 7
9 -6 12 44 12 232 l0 239 26 27 c15 14 34 26 43 26 23 0 41 20 41 45 0 43 -44
59 -73 27z"/>
<path d="M4097 6022 c-21 -23 -22 -56 -2 -72 13 -11 15 -55 15 -285 l0 -273
63 -44 c258 -176 237 -155 237 -240 0 -55 -4 -72 -20 -88 -45 -45 -8 -128 52
-116 57 11 75 66 38 113 -17 21 -20 41 -20 112 l0 87 -45 32 c-25 18 -50 32
-55 32 -5 0 -13 6 -17 13 -4 7 -38 32 -75 57 -38 24 -68 47 -68 51 0 4 -9 9
-20 12 -19 5 -20 14 -20 257 0 237 1 253 20 277 11 14 20 32 20 39 0 22 -38
54 -63 54 -13 0 -31 -8 -40 -18z"/>
<path d="M3543 6010 c-28 -11 -39 -53 -24 -86 7 -15 11 -90 11 -196 l0 -171
-45 -48 c-39 -42 -44 -52 -35 -69 17 -32 44 -24 100 32 l53 52 -2 179 c-1 145
2 184 15 212 17 36 13 65 -12 90 -17 17 -29 18 -61 5z"/>
<path d="M5705 5993 c-35 -39 -34 -90 3 -126 37 -35 80 -36 121 -1 l31 26 186
-1 c102 -1 194 -6 204 -11 44 -24 90 5 90 56 0 41 -68 72 -96 44 -6 -6 -86
-10 -196 -10 l-186 -1 -26 25 c-36 37 -96 36 -131 -1z"/>
<path d="M5399 5968 c0 -2 -1 -65 -2 -142 -2 -147 3 -163 44 -137 15 8 24 8
39 -1 15 -10 24 -10 39 -1 13 8 22 8 29 1 6 -6 22 -8 36 -4 19 5 26 13 26 31
0 14 -4 25 -10 25 -6 0 -10 33 -10 79 0 44 5 83 10 86 6 3 10 17 10 30 0 18
-7 26 -26 31 -14 4 -30 2 -36 -4 -7 -7 -16 -7 -29 1 -15 9 -24 9 -40 -1 -15
-10 -24 -11 -32 -3 -9 9 -45 16 -48 9z"/>
<path d="M6275 5810 c-4 -6 -89 -10 -223 -10 l-217 0 -80 -80 c-44 -43 -85
-79 -91 -80 -6 0 -19 -9 -29 -20 -18 -20 -17 -20 16 -20 30 0 46 11 119 85
l85 85 204 0 c179 0 207 -2 223 -17 33 -30 76 18 48 52 -14 17 -46 20 -55 5z"/>
<path d="M7007 5733 c-9 -11 -17 -29 -17 -41 0 -32 37 -65 63 -58 12 3 33 9
46 13 l24 6 -5 -92 c-5 -88 -5 -93 18 -107 18 -12 27 -13 44 -4 19 10 21 18
16 48 -3 21 -6 80 -6 134 l0 96 -52 5 c-29 3 -67 8 -83 12 -23 5 -35 2 -48
-12z"/>
<path d="M7237 5733 c-9 -11 -17 -29 -17 -41 0 -32 37 -65 63 -58 12 3 33 9
46 12 l23 7 -3 -93 c-4 -85 -2 -94 17 -106 19 -13 24 -12 41 3 18 17 19 28 15
145 l-4 126 -52 5 c-28 3 -65 8 -81 12 -23 5 -35 2 -48 -12z"/>
<path d="M7473 5735 c-13 -9 -23 -27 -23 -41 0 -33 36 -67 63 -60 12 3 33 9
46 13 l24 6 -5 -92 c-5 -89 -5 -93 19 -108 23 -15 26 -15 42 3 15 17 17 35 13
146 l-4 126 -52 5 c-28 3 -62 8 -76 11 -16 5 -33 1 -47 -9z"/>
<path d="M7722 5717 c-30 -32 -31 -102 -2 -117 19 -10 20 -21 20 -286 l0 -276
-134 -134 -133 -134 -367 0 -366 0 -9 23 c-19 48 -97 97 -156 97 -45 0 -107
-37 -137 -82 -26 -37 -29 -50 -25 -93 5 -68 40 -118 99 -144 56 -25 66 -26
120 -5 43 16 98 67 98 91 0 10 79 13 391 13 l391 0 159 158 159 157 0 301 c0
288 1 302 20 319 29 26 27 85 -3 113 -33 31 -96 30 -125 -1z m-1081 -889 c46
-26 63 -63 56 -125 -4 -38 -12 -52 -38 -75 -43 -35 -88 -44 -125 -25 -112 58
-108 187 6 239 28 13 62 8 101 -14z"/>
<path d="M6392 5698 c-17 -17 -15 -42 6 -61 23 -21 46 -22 62 -2 18 21 412 22
432 1 209 -217 423 -440 455 -473 34 -34 50 -43 82 -45 23 -2 41 -6 41 -11 0
-4 15 -15 34 -23 31 -15 35 -15 60 1 30 20 35 64 10 89 -22 22 -71 20 -91 -4
-39 -46 -57 -33 -274 191 -112 117 -230 238 -261 270 l-57 59 -215 0 c-132 0
-217 4 -221 10 -9 14 -48 13 -63 -2z"/>
<path d="M6062 5693 l-223 -3 -84 -85 -85 -85 -61 0 c-33 0 -70 -5 -81 -11
-15 -8 -19 -8 -14 0 5 7 -5 11 -28 11 -19 0 -38 5 -41 10 -10 16 -42 12 -49
-6 -17 -45 16 -81 49 -54 10 8 52 12 124 11 l109 -2 86 86 86 85 205 0 c146 0
211 -4 225 -12 26 -17 55 1 55 33 0 19 -5 24 -25 24 -14 1 -125 -1 -248 -2z"/>
<path d="M6280 5580 c0 -6 -81 -10 -223 -10 l-222 0 -84 -84 -84 -85 -101 1
c-56 0 -107 5 -114 11 -7 5 -15 7 -19 3 -3 -3 -1 -6 5 -6 18 0 15 -40 -3 -46
-8 -4 -22 -1 -30 6 -10 8 -15 9 -15 2 0 -6 9 -16 19 -22 15 -7 23 -6 35 5 11
12 41 15 129 15 l114 0 81 80 81 80 71 0 c42 0 77 -5 86 -12 55 -47 113 -115
118 -139 7 -35 28 -46 62 -30 37 17 30 62 -12 76 -29 10 -128 94 -120 102 2 3
52 4 110 5 72 0 112 -4 122 -13 31 -26 70 25 44 56 -14 17 -50 20 -50 5z"/>
<path d="M4757 5562 c-21 -23 -22 -76 -3 -95 12 -12 16 -87 19 -437 5 -405 4
-423 -14 -441 -42 -42 -12 -109 49 -109 55 0 82 68 42 105 -19 18 -20 31 -20
437 0 405 1 421 20 445 11 14 20 36 20 49 0 54 -78 85 -113 46z"/>
<path d="M5115 5518 l-55 -52 0 -190 c-1 -152 -4 -195 -15 -210 -21 -28 -19
-49 8 -74 28 -26 45 -27 76 -6 20 14 22 22 16 53 -4 20 -9 117 -12 216 l-4
181 46 43 c47 44 53 59 33 79 -21 21 -37 14 -93 -40z"/>
<path d="M6672 5507 c-27 -29 -27 -38 -1 -71 26 -33 63 -34 93 -1 21 22 31 25
98 25 l76 0 78 -82 c44 -44 103 -105 132 -135 35 -35 52 -59 48 -69 -3 -9 -6
-18 -6 -20 0 -2 -13 -4 -30 -4 -55 0 -62 -68 -8 -86 16 -5 27 -1 40 16 11 13
17 29 14 36 -3 7 2 18 10 25 12 10 20 7 45 -17 l29 -28 -72 -73 c-48 -48 -80
-73 -95 -73 -31 0 -50 -39 -34 -69 20 -37 81 -22 81 21 0 9 32 49 70 88 l71
72 32 -25 c18 -13 34 -35 35 -48 5 -33 20 -49 47 -49 54 0 59 76 6 86 -27 6
-51 29 -402 395 l-66 69 -92 0 c-78 0 -94 3 -111 20 -27 27 -62 25 -88 -3z"/>
<path d="M6558 5489 c-10 -5 -18 -20 -18 -33 0 -13 -12 -31 -30 -44 -29 -22
-30 -26 -30 -96 0 -60 -3 -76 -20 -91 -23 -21 -26 -62 -6 -87 16 -22 69 -23
86 -3 20 24 14 78 -9 94 -18 11 -21 24 -21 75 0 51 4 65 24 84 13 12 35 22 48
22 46 0 64 43 30 73 -21 19 -30 20 -54 6z"/>
<path d="M5237 5313 c-17 -16 -3 -46 46 -97 l52 -56 450 -3 c248 -2 466 -7
486 -11 27 -6 40 -4 52 9 26 26 22 72 -9 91 -24 16 -28 16 -60 1 -31 -15 -85
-17 -461 -17 l-426 0 -43 45 c-39 41 -70 55 -87 38z"/>
<path d="M3830 5288 c-25 -28 -26 -58 0 -86 20 -21 20 -33 18 -434 l-3 -413
-137 -3 -138 -3 0 -165 c0 -100 -4 -173 -11 -186 -14 -25 -4 -64 17 -72 20 -8
64 19 64 38 0 7 -7 19 -15 26 -12 10 -15 42 -15 166 l0 153 138 3 137 3 3 435
c2 361 5 436 16 442 8 5 17 22 21 39 5 24 2 36 -16 55 -28 30 -52 31 -79 2z"/>
<path d="M4483 4866 l-173 -173 0 -501 c0 -323 -4 -503 -10 -507 -14 -9 -13
-68 2 -83 22 -22 76 -14 94 14 16 24 16 28 1 60 -15 31 -17 88 -17 508 l0 473
165 167 c91 92 165 168 165 170 0 1 -10 2 -22 2 -18 -1 -23 4 -22 22 0 12 -2
22 -5 22 -3 -1 -84 -79 -178 -174z"/>
<path d="M3341 4976 c-10 -12 -8 -13 9 -9 24 6 41 -12 33 -34 -5 -14 -38 -18
-46 -5 -2 4 -2 1 0 -6 1 -8 3 -72 3 -143 l0 -129 165 -2 c99 -2 166 -7 168
-13 3 -15 -427 -19 -456 -4 -21 12 -21 11 -4 -8 9 -11 17 -24 17 -30 0 -19
-33 -24 -48 -9 -13 13 -13 17 -1 32 12 15 12 17 -1 12 -22 -7 -24 -37 -5 -58
15 -16 15 -18 0 -24 -19 -7 -17 -47 3 -54 11 -3 11 -1 0 17 -11 18 -11 23 2
31 8 5 17 10 20 10 3 0 12 -5 20 -10 12 -7 12 -13 4 -27 -11 -17 0 -18 212
-15 126 2 231 -1 241 -6 42 -22 88 33 47 56 -14 8 -14 10 0 21 18 15 21 47 6
56 -6 4 -5 13 2 24 23 37 -17 75 -53 53 -12 -8 -70 -12 -159 -12 l-140 0 0
110 c0 69 5 118 12 130 10 15 9 23 -6 39 -23 25 -30 26 -45 7z m338 -410 c19
-23 -8 -26 -229 -26 -221 0 -248 3 -229 26 9 11 56 14 229 14 173 0 220 -3
229 -14z"/>
<path d="M6254 4847 c-35 -30 -38 -82 -6 -108 21 -16 22 -26 22 -151 l0 -134
65 -64 65 -64 0 -689 0 -688 -35 -33 c-46 -43 -48 -91 -7 -137 60 -68 172 -25
172 65 0 43 -22 78 -52 89 -17 6 -18 49 -18 709 l0 704 -65 64 -65 64 0 123
c0 99 3 124 15 131 41 22 33 116 -12 133 -36 14 -49 11 -79 -14z m226 -1945
c17 -14 23 -30 24 -65 1 -25 0 -45 -3 -45 -4 1 -19 -4 -35 -11 -36 -15 -83 -6
-96 19 -16 31 -12 78 10 100 25 25 71 26 100 2z"/>
<path d="M4987 4832 c-21 -23 -22 -62 -2 -88 11 -15 14 -57 14 -204 1 -176 -1
-189 -26 -255 l-26 -70 -2 -443 c-3 -401 -4 -445 -20 -469 -17 -25 -17 -28 0
-60 15 -27 24 -33 50 -33 56 0 85 60 50 106 -12 16 -14 87 -15 449 l0 430 25
70 c23 65 25 84 25 261 0 150 3 198 15 220 19 37 19 54 -1 82 -19 27 -64 29
-87 4z"/>
<path d="M5407 4822 c-14 -15 -17 -40 -17 -126 0 -59 5 -116 10 -127 10 -17
23 -19 160 -19 137 0 150 2 160 19 5 11 10 68 10 126 0 58 -5 115 -10 126 -10
17 -23 19 -154 19 -126 0 -145 -2 -159 -18z"/>
<path d="M5842 4814 c-29 -20 -31 -79 -2 -94 19 -10 20 -21 20 -255 l0 -245
195 0 195 0 0 -486 0 -485 -30 -26 c-59 -49 -22 -147 54 -147 82 0 116 94 56
151 l-30 28 0 507 0 508 -195 0 -195 0 0 220 c0 210 1 221 21 241 15 15 19 28
14 47 -12 50 -60 67 -103 36z"/>
<path d="M5988 4689 c-13 -7 -18 -23 -18 -59 0 -56 15 -70 72 -70 45 0 58 15
58 70 0 25 -5 51 -12 58 -15 15 -76 15 -100 1z"/>
<path d="M4583 4579 c20 -12 22 -32 4 -48 -10 -8 -19 -7 -32 3 -16 12 -17 16
-6 30 7 9 9 16 3 16 -5 0 -13 -7 -16 -16 -7 -19 21 -56 39 -52 7 2 76 -57 154
-130 l141 -134 0 -99 c0 -61 -4 -99 -10 -99 -6 0 -15 -11 -22 -25 -9 -19 -8
-29 6 -50 19 -29 46 -32 69 -7 21 23 22 68 2 76 -12 4 -15 26 -15 110 l0 105
-97 94 c-54 52 -119 114 -145 137 -30 27 -48 51 -48 65 0 13 -7 26 -16 29 -24
9 -31 7 -11 -5z"/>
<path d="M5518 4506 c-10 -7 -18 -22 -18 -32 0 -11 -21 -36 -50 -59 l-50 -40
0 -95 c0 -83 -3 -98 -20 -113 -24 -20 -25 -45 -4 -75 30 -43 114 -15 114 37 0
20 -25 51 -41 51 -5 0 -9 40 -9 89 l0 90 45 36 c24 20 48 34 53 31 14 -8 52
23 52 44 0 10 -10 26 -22 34 -27 19 -28 19 -50 2z"/>
<path d="M5982 4488 c-7 -7 -12 -33 -12 -58 0 -57 12 -70 65 -70 53 0 65 13
65 70 0 57 -12 70 -65 70 -23 0 -46 -5 -53 -12z"/>
<path d="M5596 4385 c-23 -24 -28 -52 -14 -82 10 -22 21 -29 49 -31 26 -2 46
-13 73 -41 l36 -37 0 -612 c0 -599 0 -612 -20 -632 -23 -23 -25 -48 -8 -85 9
-20 18 -25 48 -25 22 0 43 7 50 16 19 21 16 70 -3 92 -16 17 -17 73 -17 643
l0 624 -45 47 c-25 26 -45 57 -45 68 0 11 -7 32 -16 45 -19 29 -64 34 -88 10z"/>
<path d="M4589 4369 c-15 -15 -19 -26 -13 -42 5 -12 10 -191 11 -397 l3 -375
47 -47 c50 -51 64 -56 82 -34 9 11 4 23 -24 56 -32 38 -35 48 -35 103 -2 424
0 643 5 679 11 70 -32 101 -76 57z"/>
<path d="M5132 4358 c-17 -17 -15 -64 3 -82 8 -8 15 -28 15 -43 0 -22 11 -39
46 -69 25 -21 61 -54 80 -72 l34 -33 0 -315 c0 -198 -4 -322 -10 -335 -14 -25
4 -59 30 -59 11 0 24 10 30 23 10 20 10 20 -3 5 -18 -23 -43 -23 -51 -1 -9 23
18 50 36 35 11 -8 12 50 10 320 l-3 331 -77 73 c-42 41 -80 74 -84 74 -16 0
-8 52 12 77 11 14 20 30 20 34 0 16 -40 49 -58 49 -10 0 -23 -5 -30 -12z"/>
<path d="M3660 4204 c-21 -25 -16 -76 8 -92 19 -13 22 -24 22 -93 l0 -78 -96
-93 c-53 -51 -128 -124 -167 -162 -39 -37 -82 -70 -96 -72 -32 -6 -50 -29 -44
-55 13 -48 78 -46 89 4 3 17 23 47 44 66 20 20 96 92 169 160 l131 124 0 96
c0 85 2 98 20 109 22 13 26 52 10 83 -13 24 -72 26 -90 3z"/>
<path d="M3818 4213 c-9 -3 -20 -13 -23 -24 -7 -22 2 -59 16 -59 5 0 9 -225 9
-571 l0 -571 -30 -28 c-35 -33 -38 -67 -9 -104 42 -53 129 -21 129 47 0 19
-10 38 -30 57 l-30 28 0 570 c0 508 2 571 16 576 23 9 15 67 -11 76 -11 3 -28
5 -37 3z"/>
<path d="M5578 4145 c-8 -19 -8 -31 0 -50 9 -19 12 -152 12 -459 l0 -433 -22
-20 c-13 -11 -35 -23 -50 -27 -45 -10 -50 -78 -7 -89 23 -6 59 23 59 48 0 8
13 28 30 45 l30 31 0 441 c0 380 2 443 15 458 20 22 19 43 -3 63 -26 24 -51
21 -64 -8z"/>
<path d="M5853 4079 c-22 -6 -34 -18 -42 -40 -12 -35 -5 -83 15 -100 11 -9 14
-64 14 -280 l0 -268 75 -75 c76 -77 103 -89 131 -62 30 30 15 65 -56 132 l-50
47 0 251 c1 205 3 255 15 270 21 28 19 78 -5 104 -12 12 -25 22 -30 22 -4 0
-14 2 -22 4 -7 2 -27 0 -45 -5z"/>
</g>
</svg>
