<?xml version="1.0" standalone="no"?>
<!DOCTYPE svg PUBLIC "-//W3C//DTD SVG 20010904//EN"
 "http://www.w3.org/TR/2001/REC-SVG-20010904/DTD/svg10.dtd">
<svg version="1.0" xmlns="http://www.w3.org/2000/svg"
 width="580.000000pt" height="580.000000pt" viewBox="0 0 580.000000 580.000000"
 preserveAspectRatio="xMidYMid meet">
<metadata>
Created by potrace 1.16, written by Peter Selinger 2001-2019
</metadata>
<g transform="translate(0.000000,580.000000) scale(0.100000,-0.100000)"
fill="#000000" stroke="none">
<path d="M2320 5149 c-109 -59 -135 -82 -182 -160 -97 -158 -115 -215 -104
-330 4 -35 6 -95 6 -132 -1 -50 4 -79 20 -112 40 -82 41 -100 13 -142 -17 -25
-28 -56 -31 -89 -4 -48 -2 -53 27 -75 31 -23 31 -23 31 -115 0 -56 6 -108 15
-135 12 -33 13 -50 5 -75 -16 -47 -3 -105 28 -131 14 -12 23 -26 18 -30 -4 -4
-65 -10 -134 -13 l-127 -5 -64 -44 c-36 -24 -97 -54 -135 -66 -61 -20 -75 -29
-103 -66 -18 -24 -43 -57 -56 -74 -33 -41 -60 -90 -97 -177 -17 -40 -38 -80
-46 -89 -7 -8 -14 -29 -14 -45 0 -16 -9 -63 -21 -104 -11 -41 -27 -108 -35
-149 -13 -65 -20 -80 -59 -123 -48 -50 -74 -101 -93 -180 -17 -67 -33 -402
-31 -659 l1 -216 -45 -134 c-25 -74 -53 -174 -62 -224 -9 -49 -22 -99 -29
-110 -33 -52 -70 -201 -71 -285 -1 -47 -5 -119 -10 -162 -6 -63 -11 -77 -26
-81 -10 -3 -19 -12 -19 -21 0 -9 -8 -16 -20 -16 -11 0 -20 -7 -20 -15 0 -8 5
-15 11 -15 5 0 8 -4 4 -10 -3 -5 -12 -7 -20 -3 -11 4 -13 1 -8 -13 5 -13 3
-16 -10 -11 -11 4 -17 1 -17 -7 0 -8 -7 -16 -15 -20 -8 -3 -15 -1 -15 4 0 6
-7 10 -16 10 -11 0 -15 -6 -11 -19 3 -14 0 -17 -13 -14 -12 3 -19 -3 -23 -17
-4 -15 -11 -21 -21 -17 -10 4 -16 1 -16 -7 0 -9 -7 -12 -19 -9 -12 3 -20 -2
-24 -16 -3 -14 -10 -18 -26 -14 -13 3 -21 1 -21 -7 0 -7 -11 -23 -24 -35 -14
-13 -22 -26 -19 -29 4 -3 -3 -6 -14 -6 -13 0 -23 -9 -28 -22 -4 -14 -8 -18
-12 -10 -2 6 -11 12 -19 12 -17 0 -19 -27 -2 -32 9 -3 9 -6 0 -12 -7 -4 -12
-2 -12 3 0 6 -7 11 -15 11 -18 0 -20 -30 -2 -30 6 0 2 -8 -9 -18 -12 -9 -27
-27 -33 -39 -7 -13 -16 -23 -21 -23 -14 0 -50 -37 -42 -44 3 -3 -4 -6 -16 -6
-13 0 -22 -6 -22 -15 0 -8 6 -15 12 -15 7 0 1 -8 -12 -17 -19 -14 -45 -18
-105 -18 -68 0 -80 -3 -83 -17 -3 -17 46 -18 930 -18 l933 1 -57 32 c-31 18
-82 50 -113 71 -42 30 -58 37 -64 27 -6 -9 -10 -7 -14 8 -6 24 -78 71 -241
158 -67 36 -125 68 -131 72 -17 13 -106 62 -179 98 -38 19 -106 41 -150 50
-92 17 -106 23 -120 47 -9 13 -7 20 9 32 11 8 24 13 30 10 6 -2 11 17 11 48 7
274 18 344 74 471 9 22 27 90 39 150 11 61 34 144 49 185 16 41 55 147 87 235
32 88 62 165 65 170 4 6 13 27 20 48 10 34 10 44 -6 79 -17 38 -17 41 3 102
11 35 19 78 17 97 -7 96 -17 194 -19 197 -1 1 -14 -3 -28 -9 -25 -11 -28 -29
-6 -29 6 0 7 6 3 13 -6 9 -4 9 8 -1 18 -14 18 -36 0 -54 -8 -8 -12 -9 -12 -1
0 6 3 13 8 16 4 2 2 3 -5 1 -6 -1 -18 5 -27 15 -14 16 -15 20 -2 30 8 7 12 19
9 27 -4 10 0 12 13 7 18 -6 18 -5 0 15 -21 24 -15 42 8 23 8 -7 13 -21 11 -31
-2 -12 1 -17 10 -14 19 7 12 34 -13 55 -19 15 -20 18 -5 23 9 4 18 4 21 1 3
-3 0 -5 -7 -5 -7 0 -9 -4 -6 -10 3 -5 10 -10 15 -10 10 0 8 20 -4 39 -6 9 -5
12 2 7 13 -8 20 2 27 42 4 24 2 32 -10 32 -8 0 -15 5 -15 11 0 6 6 9 14 6 9
-4 13 0 12 11 -2 9 3 22 9 27 7 6 20 55 30 110 9 55 28 141 41 190 13 50 24
102 24 116 0 15 6 32 14 38 7 6 30 52 51 102 46 112 92 175 125 173 21 -2 22
0 8 10 -16 12 -16 15 2 43 20 34 40 50 40 34 0 -6 24 -38 53 -71 69 -78 98
-117 101 -135 1 -8 11 -25 23 -37 28 -32 97 -137 92 -142 -9 -9 -128 106 -123
118 3 8 -8 17 -28 23 -18 5 -32 15 -30 22 1 6 -10 16 -25 22 -16 7 -37 16 -48
21 -25 11 -79 -6 -73 -24 2 -6 19 -14 38 -16 70 -8 171 -76 154 -104 -4 -7 -4
-10 1 -6 13 12 33 -11 28 -32 -6 -24 -16 -25 -33 -5 -17 20 -24 12 -11 -12 5
-10 19 -38 30 -63 12 -25 46 -74 77 -110 55 -65 123 -180 105 -180 -5 0 -24
25 -41 56 -42 72 -183 250 -188 236 -4 -12 -32 -4 -47 14 -5 6 -27 17 -48 24
-21 7 -57 30 -79 51 -46 44 -48 45 -48 25 0 -20 75 -84 149 -128 84 -49 60
-58 -36 -12 -92 43 -195 85 -199 81 -2 -1 58 -34 133 -72 100 -51 154 -86 200
-129 87 -81 218 -245 206 -257 -6 -6 -24 5 -48 33 -21 24 -61 63 -89 86 -28
24 -88 80 -133 123 -78 76 -82 79 -93 59 -10 -19 -14 -20 -28 -8 -22 18 -87
45 -129 53 -30 6 -33 5 -33 -19 0 -18 5 -26 18 -26 42 0 202 -176 202 -222 0
-32 -15 -22 -102 68 -79 81 -96 94 -124 94 -34 0 -52 -14 -34 -25 5 -3 19 -25
30 -48 28 -59 45 -77 129 -132 98 -65 128 -74 227 -67 67 4 92 1 136 -16 29
-11 88 -33 132 -48 43 -15 93 -40 111 -56 18 -15 42 -28 53 -28 11 0 44 -12
74 -27 51 -26 55 -26 132 -15 57 8 83 9 92 1 7 -6 19 -9 26 -7 15 5 -59 55
-104 70 -24 9 -31 7 -43 -8 -14 -18 -14 -18 -15 -1 0 23 -59 50 -174 79 l-86
22 0 37 c0 25 -6 42 -19 51 -22 16 -54 75 -46 87 3 5 -2 42 -11 82 -25 117
-28 174 -10 226 9 26 16 64 16 86 0 53 24 44 28 -12 2 -23 7 -39 13 -36 16 10
10 -24 -11 -65 -20 -40 -20 -40 -1 -57 14 -12 18 -24 14 -44 -9 -46 15 -43 47
7 29 47 40 104 20 104 -6 0 -15 -11 -20 -25 -8 -22 -30 -36 -30 -19 0 10 41
67 74 102 21 22 31 43 31 64 0 17 5 33 11 35 20 7 24 -25 9 -61 -17 -41 -20
-106 -4 -106 5 0 7 5 3 12 -4 6 -3 8 3 5 7 -4 7 -25 1 -59 -13 -76 -38 -219
-44 -248 -3 -15 -2 -21 4 -15 5 6 21 60 37 120 33 130 57 183 130 289 61 88
69 128 35 176 -23 32 -18 40 27 40 35 0 72 15 86 34 5 7 11 4 19 -9 11 -18 13
-16 23 25 l11 45 47 -70 c54 -83 95 -201 104 -302 3 -40 9 -73 12 -73 3 0 14
20 24 44 30 72 143 224 246 331 89 91 99 107 126 180 23 65 28 95 28 160 -1
43 3 87 8 96 6 13 2 21 -17 34 -14 9 -23 19 -20 22 9 9 129 32 169 33 23 0 49
8 64 20 18 14 41 20 74 20 48 0 49 0 49 32 0 25 -29 75 -121 212 l-122 180 -1
240 c-2 208 -4 248 -20 291 -25 67 -62 119 -128 181 -118 112 -263 154 -533
154 l-150 0 -75 -41z m759 -826 c14 -27 -1 -97 -22 -101 -11 -2 -17 3 -17 16
0 11 -7 25 -15 32 -12 10 -15 9 -15 -8 0 -11 -7 -25 -15 -32 -12 -10 -15 -10
-15 0 0 10 -3 10 -15 0 -9 -7 -14 -19 -11 -25 7 -20 -66 -86 -84 -75 -12 7
-11 12 4 29 18 19 18 24 4 59 -14 36 -14 42 4 75 10 21 23 37 28 37 14 0 25
-23 21 -45 -2 -16 0 -18 10 -7 7 6 21 12 31 12 9 0 21 8 27 18 8 14 12 15 22
5 21 -21 41 -16 34 7 -8 25 11 27 24 3z m-1129 -893 c23 -47 49 -93 58 -103 8
-9 13 -20 9 -23 -15 -16 -79 23 -141 85 -71 71 -82 105 -25 75 37 -19 68 -12
49 11 -7 8 -15 13 -19 11 -3 -2 -26 -1 -50 3 l-44 6 54 36 54 36 6 -26 c3 -14
25 -64 49 -111z"/>
<path d="M3213 3604 c1 -55 -2 -68 -13 -66 -11 3 -10 -2 4 -16 9 -11 24 -49
32 -85 11 -46 23 -72 44 -92 24 -23 30 -25 30 -12 0 9 4 17 10 17 13 0 37 -52
33 -72 -2 -9 1 -19 6 -23 6 -3 11 1 11 9 0 9 4 16 8 16 4 0 9 24 9 53 1 28 9
69 17 89 9 21 16 49 16 63 0 33 20 32 54 -4 15 -16 40 -31 56 -34 15 -4 34
-13 43 -21 11 -12 35 -14 111 -12 56 2 99 0 102 -6 4 -5 -7 -24 -24 -41 -16
-18 -37 -48 -46 -67 -16 -34 -16 -34 1 -10 10 14 30 36 44 50 14 14 29 35 33
47 6 20 10 21 39 11 35 -13 87 -56 87 -74 0 -7 11 -19 25 -28 14 -10 30 -28
35 -42 10 -25 24 -31 35 -14 7 12 25 4 25 -11 0 -5 -8 -9 -17 -9 -13 0 -14 -3
-5 -12 25 -25 12 -53 -43 -97 -30 -24 -55 -48 -55 -54 0 -5 20 7 45 27 43 35
44 36 55 16 6 -11 8 -26 4 -33 -5 -6 1 -5 11 3 17 14 18 13 11 -13 -4 -19 -3
-26 4 -22 5 3 10 17 10 30 0 22 16 42 26 33 7 -8 -19 -72 -38 -92 -10 -11 -18
-25 -18 -30 0 -6 -5 -4 -10 4 -6 9 -10 10 -10 3 0 -6 5 -15 10 -18 7 -4 7 -12
0 -25 -7 -13 -7 -21 0 -25 17 -11 34 10 49 60 7 25 21 50 31 55 15 8 19 5 22
-22 4 -27 -1 -39 -33 -73 -55 -58 -75 -87 -84 -115 -4 -14 -14 -33 -23 -42
-30 -35 2 -17 49 27 26 25 52 45 56 45 20 0 9 -49 -27 -119 -22 -42 -46 -103
-55 -136 -8 -33 -18 -68 -21 -78 -4 -12 -2 -17 4 -13 6 3 16 23 23 44 20 61
119 197 119 164 0 -31 -43 -229 -52 -240 -7 -8 -10 -53 -9 -113 2 -92 0 -100
-16 -95 -10 3 -56 10 -103 16 -85 11 -150 27 -150 37 0 3 11 14 25 25 14 11
39 43 55 72 44 75 38 140 -12 142 -13 1 -32 5 -43 9 -16 7 -18 6 -7 -6 27 -30
9 -59 -38 -59 -10 0 -25 -9 -33 -20 -19 -27 -97 -85 -127 -95 -14 -4 -50 -34
-81 -66 -51 -54 -61 -59 -100 -60 -24 -1 -49 -1 -55 0 -14 2 -21 -60 -39 -314
l-13 -190 -39 -34 -38 -34 44 7 c36 6 42 4 38 -9 -5 -10 2 -17 21 -21 15 -3
32 -7 39 -9 7 -3 10 2 6 11 -4 12 0 14 21 8 25 -6 26 -5 16 21 -13 34 -13 32
10 38 15 4 20 14 20 40 0 43 8 49 49 37 19 -5 29 -5 26 0 -3 5 -23 14 -44 20
-21 5 -45 18 -53 27 -23 28 -61 137 -49 141 19 6 12 39 -11 55 -28 18 -24 22
26 31 33 6 38 5 33 -9 -4 -10 0 -18 11 -22 62 -22 89 -67 57 -93 -10 -8 -12
-17 -6 -23 13 -13 32 1 29 21 -2 11 10 23 31 34 33 16 35 16 61 -5 15 -12 33
-39 40 -59 14 -42 33 -62 68 -72 28 -9 28 -23 0 -53 l-21 -23 24 0 c16 0 33
11 47 30 13 16 29 30 37 30 8 0 15 5 15 10 0 6 -9 10 -19 10 -23 0 -56 59 -42
73 5 5 11 4 15 -2 5 -7 13 -8 25 -2 12 7 26 4 47 -10 16 -10 32 -19 37 -19 15
0 6 37 -13 55 -11 10 -17 22 -14 27 8 12 42 -19 60 -54 13 -26 11 -32 -8 -29
-11 2 -10 -17 1 -24 5 -3 10 -30 10 -60 0 -47 -3 -55 -19 -55 -12 0 -27 -18
-45 -52 -15 -29 -36 -63 -47 -75 l-20 -22 21 6 c26 7 95 88 87 101 -3 6 1 15
9 22 13 10 19 9 35 -5 11 -10 20 -26 20 -35 0 -9 6 -22 12 -28 10 -10 10 -17
1 -31 -7 -11 -10 -35 -6 -57 5 -28 3 -35 -6 -29 -7 4 -11 16 -8 26 3 11 1 19
-3 19 -5 0 -11 13 -15 30 -4 16 -10 30 -13 30 -4 0 -15 -21 -25 -48 -10 -26
-23 -54 -28 -62 -5 -8 -13 -25 -18 -37 -6 -11 -15 -24 -20 -28 -6 -3 -11 -17
-11 -31 0 -14 -7 -27 -16 -31 -8 -3 -13 -12 -9 -21 4 -12 -3 -14 -47 -8 -28 4
-59 11 -69 17 -10 5 -54 9 -99 9 -68 0 -81 -2 -76 -15 5 -14 -76 -85 -131
-114 -30 -16 -29 -35 4 -56 15 -10 38 -31 51 -47 14 -16 31 -27 38 -24 7 3 16
-4 19 -15 4 -10 12 -19 20 -19 7 0 20 -11 29 -25 9 -14 20 -24 24 -21 9 5 68
-162 60 -169 -3 -3 -36 8 -74 24 -38 16 -85 32 -104 36 -19 4 -45 13 -57 21
-12 8 -29 11 -37 8 -10 -4 -17 -1 -18 7 0 8 -2 19 -2 24 -1 6 -5 16 -9 23 -5
7 -6 21 -2 31 3 10 -1 23 -8 29 -11 9 -21 3 -47 -28 -19 -22 -38 -40 -44 -39
-46 5 -72 -24 -62 -67 7 -26 92 -88 108 -78 4 3 15 -2 24 -10 8 -9 24 -16 34
-16 10 0 22 -5 25 -10 4 -6 10 -8 15 -5 5 3 11 1 14 -4 3 -5 14 -7 24 -4 11 2
34 -4 52 -15 18 -11 38 -18 45 -16 16 6 75 -61 75 -85 0 -41 -44 -56 -211 -71
-101 -9 -135 -9 -219 5 -122 21 -146 15 -59 -14 62 -20 73 -21 200 -11 74 5
168 10 209 10 73 0 77 -1 108 -34 35 -37 41 -51 17 -43 -20 8 -28 -8 -10 -23
8 -7 13 -16 10 -20 -3 -5 4 -15 16 -23 14 -10 17 -17 9 -22 -9 -6 -9 -9 0 -15
17 -11 -89 -72 -185 -108 -45 -16 -99 -40 -120 -54 -41 -26 -84 -43 -98 -40
-4 1 -31 -11 -60 -27 -92 -50 -210 -108 -272 -131 -118 -44 -140 -54 -156 -67
-8 -7 -22 -13 -30 -13 -8 0 -36 -9 -64 -20 l-50 -19 555 0 555 0 37 26 c35 24
77 26 63 3 -9 -15 0 -12 40 11 28 17 38 19 50 9 8 -7 15 -9 15 -5 0 4 7 2 15
-5 12 -10 13 -16 4 -26 -10 -12 133 -14 915 -14 l926 0 0 149 0 148 -37 7
c-21 3 -56 6 -78 6 -22 0 -58 7 -80 15 -52 18 -65 18 -65 0 0 -8 -7 -15 -15
-15 -8 0 -15 -9 -15 -20 0 -11 -4 -20 -10 -20 -5 0 -10 5 -10 10 0 6 -7 10
-15 10 -8 0 -15 -7 -15 -15 0 -8 -6 -15 -14 -15 -7 0 -16 -9 -19 -20 -5 -18
-8 -19 -32 -8 -24 11 -29 10 -44 -11 -14 -18 -23 -21 -45 -15 -22 5 -28 3 -32
-13 -4 -15 -12 -19 -31 -15 -22 4 -25 2 -21 -16 7 -24 -30 -40 -39 -16 -7 20
-34 17 -40 -4 -3 -13 -11 -18 -27 -15 -17 4 -25 -1 -29 -17 -5 -18 -10 -20
-41 -14 -25 4 -36 3 -36 -6 0 -8 -9 -10 -24 -6 -14 3 -28 1 -31 -5 -7 -11 -55
-4 -65 10 -20 27 -65 41 -135 41 -45 0 -90 6 -112 15 -19 8 -47 15 -62 15 -38
1 -101 33 -135 68 -16 17 -57 45 -92 63 -57 30 -68 32 -95 22 -25 -10 -38 -8
-75 8 -25 10 -53 19 -63 19 -9 0 -34 9 -56 20 -21 11 -54 25 -74 31 -51 16
-68 34 -75 80 -13 82 -108 209 -155 209 -35 0 -61 32 -63 75 -2 90 23 298 51
410 16 66 33 138 38 160 7 33 14 40 38 46 17 3 53 19 80 36 40 24 51 35 53 60
2 21 15 40 42 62 22 18 41 43 45 60 3 17 20 47 37 68 43 54 48 66 59 136 6 38
18 71 31 84 17 18 20 31 16 73 -4 36 -1 53 9 62 15 12 14 41 -5 128 -6 25 -8
96 -5 160 6 127 -8 247 -34 286 -14 22 -14 35 -5 92 12 78 12 68 2 239 -6 94
-13 139 -24 155 -9 12 -16 39 -16 58 0 27 -8 44 -30 65 -16 16 -30 37 -30 47
0 10 -6 18 -13 18 -17 0 -54 30 -115 93 -63 65 -96 78 -206 76 -78 0 -99 3
-151 26 -33 15 -69 35 -80 45 -22 20 -132 60 -164 60 -11 0 -28 12 -38 26 -10
14 -30 40 -44 57 l-26 31 0 -70z"/>
<path d="M3140 3270 c0 -6 -18 -33 -41 -60 -33 -39 -54 -53 -102 -69 -34 -12
-71 -21 -83 -21 -15 0 -42 -22 -82 -66 l-59 -65 4 -127 c2 -70 7 -134 10 -142
7 -17 20 69 22 141 1 38 10 60 50 120 62 95 70 101 167 138 44 17 109 52 143
78 62 46 62 47 39 58 -40 21 -68 27 -68 15z"/>
<path d="M1316 1858 c-9 -12 -16 -33 -16 -45 0 -13 -4 -31 -10 -41 -22 -39
-37 -100 -28 -116 6 -11 6 -22 -2 -31 -29 -35 -46 -82 -36 -99 8 -12 8 -19 -2
-25 -19 -12 -35 -88 -22 -110 15 -29 1 -31 -38 -5 -43 30 -63 19 -42 -23 24
-47 42 -64 55 -53 7 6 20 8 29 4 18 -7 22 -24 5 -24 -6 0 -16 -6 -24 -12 -7
-7 -31 -28 -53 -47 -41 -34 -41 -35 -22 -58 10 -13 16 -32 13 -42 -3 -10 0
-22 6 -25 6 -4 8 -19 6 -34 -5 -23 2 -33 46 -66 29 -22 48 -44 45 -51 -6 -16
40 -65 60 -65 24 0 36 40 31 108 -3 37 -2 71 3 77 4 5 17 45 27 87 17 65 18
84 9 122 -13 49 -40 85 -61 82 -23 -3 -27 -12 -10 -26 8 -7 15 -16 15 -21 0
-16 -27 -10 -51 11 l-24 20 30 25 c17 14 26 25 20 25 -5 0 -2 5 7 11 14 8 15
15 8 35 -7 17 -6 32 1 45 14 27 29 14 29 -26 0 -22 11 -50 28 -74 29 -43 43
-49 61 -28 12 15 -7 38 -44 51 -19 7 -19 8 -2 17 13 8 22 7 33 -2 8 -6 17 -9
21 -5 4 3 -2 13 -13 21 -18 14 -18 16 -1 26 9 5 17 19 17 29 0 31 16 23 47
-22 25 -37 34 -43 68 -45 68 -4 109 14 171 73 71 66 99 82 161 91 26 3 56 15
67 25 11 10 33 18 50 18 24 0 27 3 18 12 -10 10 -30 7 -95 -16 -45 -15 -125
-33 -179 -39 -83 -9 -101 -9 -130 5 -18 9 -53 22 -78 29 -44 14 -47 18 -110
131 -36 65 -68 118 -72 118 -4 0 -14 -10 -22 -22z"/>
<path d="M2327 246 c-31 -50 -60 -109 -114 -234 -4 -9 25 -12 125 -12 l130 0
-19 37 c-10 21 -19 44 -19 53 0 8 -15 60 -33 116 l-32 101 -38 -61z"/>
</g>
</svg>
